<?xml version="1.0" encoding="UTF-8" standalone="no"?>
<!-- Created with Inkscape (http://www.inkscape.org/) -->

<svg
   xmlns:dc="http://purl.org/dc/elements/1.1/"
   xmlns:cc="http://creativecommons.org/ns#"
   xmlns:rdf="http://www.w3.org/1999/02/22-rdf-syntax-ns#"
   xmlns:svg="http://www.w3.org/2000/svg"
   xmlns="http://www.w3.org/2000/svg"
   xmlns:sodipodi="http://sodipodi.sourceforge.net/DTD/sodipodi-0.dtd"
   xmlns:inkscape="http://www.inkscape.org/namespaces/inkscape"
   width="500"
   height="500"
   viewBox="0 0 500.00001 500.00001"
   id="svg4647"
   version="1.1"
   inkscape:version="0.91 r"
   sodipodi:docname="evernote_logo_invert.svg">
  <defs
     id="defs4649" />
  <sodipodi:namedview
     id="base"
     pagecolor="#f2f2f2"
     bordercolor="#666666"
     borderopacity="1.0"
     inkscape:pageopacity="1"
     inkscape:pageshadow="2"
     inkscape:zoom="1.01"
     inkscape:cx="100.52083"
     inkscape:cy="107.09677"
     inkscape:document-units="px"
     inkscape:current-layer="layer1"
     showgrid="false"
     units="px"
     inkscape:window-width="1920"
     inkscape:window-height="1028"
     inkscape:window-x="0"
     inkscape:window-y="0"
     inkscape:window-maximized="1" />
  <metadata
     id="metadata4652">
    <rdf:RDF>
      <cc:Work
         rdf:about="">
        <dc:format>image/svg+xml</dc:format>
        <dc:type
           rdf:resource="http://purl.org/dc/dcmitype/StillImage" />
        <dc:title></dc:title>
      </cc:Work>
    </rdf:RDF>
  </metadata>
  <g
     inkscape:label="evernote"
     inkscape:groupmode="layer"
     id="layer1"
     transform="translate(0,-552.36216)">
    <path
       style="opacity:0.97000002;fill:#ffffff;fill-opacity:1;stroke:none;stroke-width:0.025;stroke-miterlimit:4;stroke-dasharray:0.1, 0.02500000000000000;stroke-dashoffset:0;stroke-opacity:1"
       d="M 0 0 L 0 500 L 500 500 L 500 0 L 0 0 z M 217.19336 75.001953 C 231.87051 74.933458 249.67205 76.316817 263.29492 80.904297 C 272.38488 83.969227 280.50843 92.821339 282.19922 102.51172 C 296.28907 102.147 319.61276 101.99188 339.45703 103.94727 C 364.12405 106.37901 383.75633 109.41252 393.4375 112.33984 C 402.4113 115.04584 412.33886 121.93063 415.45703 135.89844 C 420.78932 159.79626 427.50941 254.47855 424.05078 285.84961 C 418.57818 335.46393 409.53731 365.01452 405.79688 374.69727 C 386.90268 423.74641 370.77212 425 325.01172 425 C 266.64868 425 248.78125 417.7466 248.78125 378.68555 C 248.78125 335.65781 272.97909 334.75031 314.09961 335.69727 C 319.98974 335.81942 313.76367 340.63456 313.76367 348.96484 C 313.76367 357.33838 317.61822 360.64453 312.30664 360.64453 C 300.4148 360.64453 284.36914 359.22352 284.36914 372.79688 C 284.36914 389.59044 293.9982 389.04297 319.26562 389.04297 C 350.43468 389.04297 356.39648 385.7872 356.39648 362.03711 C 356.39648 323.00098 343.19857 317.01311 325.01172 315.26367 C 304.89832 313.29191 285.10449 310.76761 275.5625 307.93555 C 251.39121 300.7539 253.11914 273.98266 253.11914 266.41797 C 253.11914 265.27767 251.20703 265.32772 251.20703 266.41797 C 251.20703 277.13322 250.29152 291.93972 243.70898 308.62891 C 241.65474 313.43462 240.16007 316.71124 240.13477 316.74414 C 232.5527 330.04449 219.82958 325.48445 199.55859 323.31445 C 179.25045 321.15026 135.92233 313.58975 116.95312 306.79492 C 108.43906 303.48847 105.55267 300.3624 101.21875 292.85742 C 90.041644 273.56997 78.273486 210.15063 76.822266 201.07227 C 75.076757 189.33988 75 183.2793 75 183.2793 C 74.977984 175.86091 75.88821 168.59142 81.132812 162.70117 C 83.767476 159.73536 87.236445 157.22636 92.132812 155.36719 C 97.021129 153.50898 103.42072 152.33008 111.79688 152.33008 L 151.06445 152.33008 C 159.62441 152.32045 166.53116 146.51838 166.53516 139.38867 C 166.53516 139.3396 166.4104 132.17721 166.29492 124.16797 C 166.1791 116.18471 166.05078 107.19933 166.05078 103.38477 C 166.067 96.644796 168.10766 91.820187 171.26172 88.054688 C 175.96497 82.417537 184.4142 78.757726 192.04883 76.972656 C 196.25214 75.987078 205.7778 75.055227 217.19336 75.001953 z M 158.5957 84.458984 L 157.25391 86.568359 C 154.44352 91.266319 152.83203 96.872634 152.83203 103.30273 L 152.83203 103.39453 C 152.83203 111.22382 153.30664 139.37617 153.30664 139.38867 C 153.3017 141.2565 151.4938 142.78906 149.24414 142.78906 L 109.98242 142.78906 L 109.95703 142.78906 C 100.31473 142.78906 92.258537 144.16412 85.615234 146.67188 C 85.310605 146.7835 83.154086 147.67668 81.576172 148.33008 C 81.619305 148.1944 81.711712 148.06 81.861328 147.95703 L 158.14648 84.667969 C 158.29601 84.542909 158.4456 84.480184 158.5957 84.458984 z M 341.01758 220.37891 C 325.4167 220.63148 320.91013 232.02817 319.52734 241.36914 C 324.59854 240.68685 330.0343 240.38718 335.6875 240.55273 C 346.29341 240.86451 356.03228 242.73587 363.89844 245.66992 C 363.83173 235.67833 361.21632 220.92564 342.5625 220.38867 C 342.03589 220.37318 341.52083 220.37076 341.01758 220.37891 z "
       transform="translate(0,552.36216)"
       id="rect9141" />
  </g>
</svg>
