<?xml version="1.0" encoding="UTF-8" standalone="no"?>
<!-- Created with Inkscape (http://www.inkscape.org/) -->

<svg
   xmlns:dc="http://purl.org/dc/elements/1.1/"
   xmlns:cc="http://creativecommons.org/ns#"
   xmlns:rdf="http://www.w3.org/1999/02/22-rdf-syntax-ns#"
   xmlns:svg="http://www.w3.org/2000/svg"
   xmlns="http://www.w3.org/2000/svg"
   xmlns:sodipodi="http://sodipodi.sourceforge.net/DTD/sodipodi-0.dtd"
   xmlns:inkscape="http://www.inkscape.org/namespaces/inkscape"
   width="500"
   height="500"
   viewBox="0 0 500.00001 500.00001"
   id="svg4584"
   version="1.1"
   inkscape:version="0.91 r"
   sodipodi:docname="feedly_logo_invert.svg">
  <defs
     id="defs4586" />
  <sodipodi:namedview
     id="base"
     pagecolor="#f4f4f4"
     bordercolor="#666666"
     borderopacity="1.0"
     inkscape:pageopacity="0"
     inkscape:pageshadow="2"
     inkscape:zoom="1.694"
     inkscape:cx="250"
     inkscape:cy="250"
     inkscape:document-units="px"
     inkscape:current-layer="layer1"
     showgrid="false"
     units="px"
     inkscape:window-width="1920"
     inkscape:window-height="1028"
     inkscape:window-x="0"
     inkscape:window-y="0"
     inkscape:window-maximized="1" />
  <metadata
     id="metadata4589">
    <rdf:RDF>
      <cc:Work
         rdf:about="">
        <dc:format>image/svg+xml</dc:format>
        <dc:type
           rdf:resource="http://purl.org/dc/dcmitype/StillImage" />
        <dc:title></dc:title>
      </cc:Work>
    </rdf:RDF>
  </metadata>
  <g
     inkscape:label="feedly"
     inkscape:groupmode="layer"
     id="layer1"
     transform="translate(0,-552.36213)">
    <path
       inkscape:connector-curvature="0"
       style="opacity:0.97000002;fill:#ffffff;fill-opacity:1;stroke:none;stroke-width:0.025;stroke-miterlimit:4;stroke-dasharray:0.1, 0.025;stroke-dashoffset:0;stroke-opacity:1"
       d="m 0,552.36215 0,499.99995 500,0 0,-499.99995 -500,0 z m 250,77.61914 c 11.62858,0 23.25689,4.42824 32.12891,13.2832 l 149.56445,149.30078 c 17.74402,17.70601 17.74402,46.42683 0,64.14063 l -107.4668,107.52734 c -5.81197,5.80511 -18.8312,10.50977 -25.01562,10.50977 l -99.15235,0 c -8.22217,0 -19.39299,-5.62749 -23.91797,-10.14063 L 68.30664,856.7059 c -17.74419,-17.7138 -17.74419,-46.43462 0,-64.14063 L 217.87109,643.26449 c 8.87202,-8.85496 20.50033,-13.2832 32.12891,-13.2832 z m 0,75.5918 c -1.60241,0 -3.20509,0.61133 -4.42969,1.83203 L 132.5625,820.20785 c -2.4493,2.4414 -2.4493,6.40234 0,8.84375 l 16.6543,16.70117 c 1.05914,1.05496 2.11438,1.07032 2.68164,1.07032 l 14.49218,0 c 0.63961,0 1.66382,-0.0359 2.73047,-1.10938 L 276.5918,738.36801 c 2.4492,-2.4414 2.4492,-6.4004 0,-8.8418 l -22.16211,-22.12109 c -1.2246,-1.2207 -2.82728,-1.83203 -4.42969,-1.83203 z m 0,90.68359 c -1.60241,0 -3.20509,0.60938 -4.42969,1.83008 l -67.57812,67.46289 c -2.4492,2.44043 -2.4492,6.40234 0,8.84375 l 16.65039,16.59766 c 1.05495,1.05495 2.10639,1.07031 2.68554,1.07031 l 14.48243,0 c 0.6396,0 1.66188,-0.0308 2.74023,-1.10938 L 276.5918,829.0516 c 2.4492,-2.44141 2.4492,-6.40235 0,-8.84375 l -22.16211,-22.12109 c -1.2246,-1.2207 -2.82728,-1.83008 -4.42969,-1.83008 z m -0.18359,90.86914 c -1.60351,0 -3.20753,0.60943 -4.43164,1.83008 l -21.97657,21.93359 c -2.4492,2.44131 -2.4492,6.4044 0,8.84571 l 16.65625,16.49804 c 1.05885,1.05075 2.11224,1.06641 2.67969,1.06641 l 14.49609,0 c 0.6357,0 1.65992,-0.0299 2.72657,-1.10352 l 16.43359,-16.27539 c 2.4531,-2.4413 2.4531,-6.40244 0,-8.84375 L 254.24414,888.9559 c -1.2207,-1.22065 -2.82422,-1.83008 -4.42773,-1.83008 z"
       id="rect12135" />
  </g>
</svg>
