<?xml version="1.0" encoding="UTF-8" standalone="no"?>
<!-- Created with Inkscape (http://www.inkscape.org/) -->

<svg
   xmlns:dc="http://purl.org/dc/elements/1.1/"
   xmlns:cc="http://creativecommons.org/ns#"
   xmlns:rdf="http://www.w3.org/1999/02/22-rdf-syntax-ns#"
   xmlns:svg="http://www.w3.org/2000/svg"
   xmlns="http://www.w3.org/2000/svg"
   xmlns:sodipodi="http://sodipodi.sourceforge.net/DTD/sodipodi-0.dtd"
   xmlns:inkscape="http://www.inkscape.org/namespaces/inkscape"
   width="500"
   height="500"
   viewBox="0 0 500.00001 500.00001"
   id="svg4603"
   version="1.1"
   inkscape:version="0.91 r"
   sodipodi:docname="Flickr_logo_2_invert.svg">
  <defs
     id="defs4605" />
  <sodipodi:namedview
     id="base"
     pagecolor="#f4f4f4"
     bordercolor="#666666"
     borderopacity="1.0"
     inkscape:pageopacity="0"
     inkscape:pageshadow="2"
     inkscape:zoom="1.694"
     inkscape:cx="250"
     inkscape:cy="250"
     inkscape:document-units="px"
     inkscape:current-layer="layer1"
     showgrid="false"
     units="px"
     inkscape:window-width="1920"
     inkscape:window-height="1028"
     inkscape:window-x="0"
     inkscape:window-y="0"
     inkscape:window-maximized="1" />
  <metadata
     id="metadata4608">
    <rdf:RDF>
      <cc:Work
         rdf:about="">
        <dc:format>image/svg+xml</dc:format>
        <dc:type
           rdf:resource="http://purl.org/dc/dcmitype/StillImage" />
        <dc:title></dc:title>
      </cc:Work>
    </rdf:RDF>
  </metadata>
  <g
     inkscape:label="Flickr"
     inkscape:groupmode="layer"
     id="layer1"
     transform="translate(0,-552.36216)">
    <path
       inkscape:connector-curvature="0"
       style="display:inline;opacity:1;fill:#ffffff;fill-opacity:1;stroke:none;stroke-width:0.025;stroke-miterlimit:4;stroke-dasharray:0.1, 0.025;stroke-dashoffset:0;stroke-opacity:1"
       d="m 1.5e-5,552.36214 0,500.00006 499.999975,0 0,-500.00006 -499.999975,0 z M 158.20313,733.34652 c 19.09745,0 35.36684,6.734 48.82813,20.19531 13.45929,13.43784 20.19336,29.70919 20.19336,48.82812 0,19.08197 -6.73407,35.37059 -20.19336,48.81446 -13.46129,13.45931 -29.73068,20.1914 -48.82813,20.1914 -19.09941,0 -35.37064,-6.73209 -48.83592,-20.1914 -13.439835,-13.44387 -20.173835,-29.73249 -20.173835,-48.81446 0,-19.11893 6.734,-35.39028 20.173835,-48.82812 13.46528,-13.46131 29.73652,-20.19531 48.83592,-20.19531 z m 183.59961,0 c 19.09945,0 35.37074,6.734 48.81055,20.19531 13.45979,13.43784 20.19142,29.70919 20.19142,48.82812 0,19.08197 -6.73163,35.37059 -20.19142,48.81446 -13.4398,13.45931 -29.7111,20.1914 -48.81055,20.1914 -19.10341,0 -35.38822,-6.73209 -48.83203,-20.1914 -13.46179,-13.44387 -20.19336,-29.73249 -20.19336,-48.81446 0,-19.11893 6.73157,-35.39028 20.19336,-48.82812 13.44381,-13.46131 29.72862,-20.19531 48.83203,-20.19531 z"
       id="rect5520" />
  </g>
</svg>
