<?xml version="1.0" encoding="UTF-8" standalone="no"?>
<!-- Created with Inkscape (http://www.inkscape.org/) -->

<svg
   xmlns:dc="http://purl.org/dc/elements/1.1/"
   xmlns:cc="http://creativecommons.org/ns#"
   xmlns:rdf="http://www.w3.org/1999/02/22-rdf-syntax-ns#"
   xmlns:svg="http://www.w3.org/2000/svg"
   xmlns="http://www.w3.org/2000/svg"
   xmlns:sodipodi="http://sodipodi.sourceforge.net/DTD/sodipodi-0.dtd"
   xmlns:inkscape="http://www.inkscape.org/namespaces/inkscape"
   width="500"
   height="500"
   viewBox="0 0 500.00001 500.00001"
   id="svg4587"
   version="1.1"
   inkscape:version="0.91 r"
   sodipodi:docname="Flickr_logo_invert.svg">
  <defs
     id="defs4589" />
  <sodipodi:namedview
     id="base"
     pagecolor="#f2f2f2"
     bordercolor="#666666"
     borderopacity="1.0"
     inkscape:pageopacity="0"
     inkscape:pageshadow="2"
     inkscape:zoom="1.694"
     inkscape:cx="250"
     inkscape:cy="250"
     inkscape:document-units="px"
     inkscape:current-layer="layer1"
     showgrid="false"
     units="px"
     inkscape:window-width="1920"
     inkscape:window-height="1028"
     inkscape:window-x="0"
     inkscape:window-y="0"
     inkscape:window-maximized="1" />
  <metadata
     id="metadata4592">
    <rdf:RDF>
      <cc:Work
         rdf:about="">
        <dc:format>image/svg+xml</dc:format>
        <dc:type
           rdf:resource="http://purl.org/dc/dcmitype/StillImage" />
        <dc:title></dc:title>
      </cc:Work>
    </rdf:RDF>
  </metadata>
  <g
     inkscape:label="Flickr"
     inkscape:groupmode="layer"
     id="layer1"
     transform="translate(0,-552.36216)">
    <path
       style="display:inline;opacity:0.97000002;fill:#ffffff;fill-opacity:1;stroke:none;stroke-width:0.025;stroke-miterlimit:4;stroke-dasharray:0.1, 0.025;stroke-dashoffset:0;stroke-opacity:1"
       d="m 2e-5,552.36214 0,500.00006 499.99996,0 0,-500.00006 -499.99996,0 z m 140.62109,75 218.76172,0 c 18.06759,0 33.52698,6.41758 46.36133,19.25195 12.83714,12.83682 19.25586,28.29762 19.25586,46.36524 l 0,218.76172 c 0,18.06761 -6.41872,33.52799 -19.25586,46.36523 -12.83435,12.83706 -28.29374,19.25586 -46.36133,19.25586 l -218.76172,0 c -18.06723,0 -33.52679,-6.4188 -46.36523,-19.25586 C 81.41884,945.26904 75.00002,929.80866 75.00002,911.74105 l 0,-218.76172 c 0,-18.06762 6.41882,-33.52842 19.25586,-46.36524 12.83844,-12.83437 28.298,-19.25195 46.36523,-19.25195 z m 45.1211,126.68945 c -13.3696,0 -24.75985,4.7138 -34.18555,14.13672 -9.40787,9.40649 -14.12109,20.79644 -14.12109,34.17969 0,13.35738 4.71322,24.75924 14.12109,34.16992 9.4257,9.42152 20.81595,14.13477 34.18555,14.13477 13.36819,0 24.75678,-4.71325 34.17969,-14.13477 9.4215,-9.41068 14.13476,-20.81254 14.13476,-34.16992 0,-13.38325 -4.71326,-24.7732 -14.13476,-34.17969 -9.42291,-9.42292 -20.8115,-14.13672 -34.17969,-14.13672 z m 128.51953,0 c -13.37239,0 -24.77293,4.7138 -34.1836,14.13672 -9.42325,9.40649 -14.13281,20.79644 -14.13281,34.17969 0,13.35738 4.70956,24.75924 14.13281,34.16992 9.41067,9.42152 20.81121,14.13477 34.1836,14.13477 13.36959,0 24.7601,-4.71325 34.16797,-14.13477 9.42185,-9.41068 14.13476,-20.81254 14.13476,-34.16992 0,-13.38325 -4.71291,-24.7732 -14.13476,-34.17969 -9.40787,-9.42292 -20.79838,-14.13672 -34.16797,-14.13672 z"
       id="rect6171"
       inkscape:connector-curvature="0" />
  </g>
</svg>
