<?xml version="1.0" encoding="UTF-8" standalone="no"?>
<!-- Created with Inkscape (http://www.inkscape.org/) -->

<svg
   xmlns:dc="http://purl.org/dc/elements/1.1/"
   xmlns:cc="http://creativecommons.org/ns#"
   xmlns:rdf="http://www.w3.org/1999/02/22-rdf-syntax-ns#"
   xmlns:svg="http://www.w3.org/2000/svg"
   xmlns="http://www.w3.org/2000/svg"
   xmlns:sodipodi="http://sodipodi.sourceforge.net/DTD/sodipodi-0.dtd"
   xmlns:inkscape="http://www.inkscape.org/namespaces/inkscape"
   width="500"
   height="500"
   viewBox="0 0 499.99998 499.99998"
   id="svg2"
   version="1.1"
   inkscape:version="0.91 r"
   sodipodi:docname="google_plus_logo_invert.svg">
  <defs
     id="defs4">
    <clipPath
       clipPathUnits="userSpaceOnUse"
       id="clipPath5208">
      <rect
         style="opacity:1;fill:none;fill-opacity:1;stroke:#000000;stroke-width:0.02434941;stroke-miterlimit:4;stroke-dasharray:0.09739762, 0.02434941;stroke-dashoffset:0;stroke-opacity:1"
         id="rect5210"
         width="754.02954"
         height="753.12793"
         x="-1070.4612"
         y="180.33302" />
    </clipPath>
  </defs>
  <sodipodi:namedview
     id="base"
     pagecolor="#f4f4f4"
     bordercolor="#666666"
     borderopacity="1.0"
     inkscape:pageopacity="1"
     inkscape:pageshadow="2"
     inkscape:zoom="1.694"
     inkscape:cx="250"
     inkscape:cy="250"
     inkscape:document-units="px"
     inkscape:current-layer="layer2"
     showgrid="false"
     units="px"
     inkscape:window-width="1920"
     inkscape:window-height="1028"
     inkscape:window-x="0"
     inkscape:window-y="0"
     inkscape:window-maximized="1" />
  <metadata
     id="metadata7">
    <rdf:RDF>
      <cc:Work
         rdf:about="">
        <dc:format>image/svg+xml</dc:format>
        <dc:type
           rdf:resource="http://purl.org/dc/dcmitype/StillImage" />
        <dc:title></dc:title>
      </cc:Work>
    </rdf:RDF>
  </metadata>
  <g
     inkscape:groupmode="layer"
     id="layer2"
     inkscape:label="google+">
    <path
       style="opacity:1;fill:#ffffff;fill-opacity:1;stroke:none;stroke-width:0.025;stroke-miterlimit:4;stroke-dasharray:0.1, 0.02500000000000000;stroke-dashoffset:0;stroke-opacity:1"
       d="M 0 0 L 0 500 L 500 500 L 500 0 L 0 0 z M 180.78516 128.87305 C 213.48929 128.87305 240.82885 140.81276 261.93945 160.53906 L 229.0625 192.20508 C 220.06454 183.55319 204.31829 173.51758 180.78516 173.51758 C 139.42913 173.51758 105.6875 207.77878 105.6875 250 C 105.6875 292.22122 139.42913 326.48242 180.78516 326.48242 C 228.71661 326.48242 246.71186 292.0475 249.48047 274.22461 L 180.78516 274.22461 L 180.78516 232.69531 L 295.16211 232.69531 C 296.20034 238.75163 297.06641 244.8098 297.06641 252.76953 C 297.06641 321.98464 250.6924 371.12695 180.78516 371.12695 C 113.81954 371.12695 59.658203 316.96562 59.658203 250 C 59.658203 183.03438 113.81954 128.87305 180.78516 128.87305 z M 371.12695 198.08789 L 405.73438 198.08789 L 405.73438 232.69531 L 440.3418 232.69531 L 440.3418 267.30469 L 405.73438 267.30469 L 405.73438 301.91211 L 371.12695 301.91211 L 371.12695 267.30469 L 336.51953 267.30469 L 336.51953 232.69531 L 371.12695 232.69531 L 371.12695 198.08789 z "
       id="rect5231" />
    <g
       id="g4885"
       transform="matrix(17.303772,0,0,17.303772,-4993.0423,-7934.6831)"
       style="fill:#ffffff;fill-opacity:1;stroke:none;stroke-opacity:1" />
  </g>
</svg>
