<?xml version="1.0" encoding="UTF-8" standalone="no"?>
<!-- Created with Inkscape (http://www.inkscape.org/) -->

<svg
   xmlns:dc="http://purl.org/dc/elements/1.1/"
   xmlns:cc="http://creativecommons.org/ns#"
   xmlns:rdf="http://www.w3.org/1999/02/22-rdf-syntax-ns#"
   xmlns:svg="http://www.w3.org/2000/svg"
   xmlns="http://www.w3.org/2000/svg"
   xmlns:sodipodi="http://sodipodi.sourceforge.net/DTD/sodipodi-0.dtd"
   xmlns:inkscape="http://www.inkscape.org/namespaces/inkscape"
   id="svg4190"
   version="1.1"
   inkscape:version="0.91 r"
   width="500"
   height="500"
   viewBox="0 0 500 500"
   sodipodi:docname="hatena-bookmark-logo_invert.svg">
  <metadata
     id="metadata4196">
    <rdf:RDF>
      <cc:Work
         rdf:about="">
        <dc:format>image/svg+xml</dc:format>
        <dc:type
           rdf:resource="http://purl.org/dc/dcmitype/StillImage" />
        <dc:title></dc:title>
      </cc:Work>
    </rdf:RDF>
  </metadata>
  <defs
     id="defs4194" />
  <sodipodi:namedview
     pagecolor="#f0f0f0"
     bordercolor="#666666"
     borderopacity="1"
     objecttolerance="10"
     gridtolerance="10"
     guidetolerance="10"
     inkscape:pageopacity="0"
     inkscape:pageshadow="2"
     inkscape:window-width="1920"
     inkscape:window-height="1028"
     id="namedview4192"
     showgrid="false"
     showguides="false"
     inkscape:guide-bbox="true"
     inkscape:zoom="1"
     inkscape:cx="1.61793"
     inkscape:cy="190.17527"
     inkscape:window-x="0"
     inkscape:window-y="0"
     inkscape:window-maximized="1"
     inkscape:current-layer="layer2">
    <sodipodi:guide
       position="318.3294,101.38725"
       orientation="0,1"
       id="guide4206" />
    <sodipodi:guide
       position="155.40142,273.17001"
       orientation="0,1"
       id="guide4210" />
    <sodipodi:guide
       position="84.563164,188.60685"
       orientation="1,0"
       id="guide4212" />
    <sodipodi:guide
       position="128.39433,181.52302"
       orientation="1,0"
       id="guide4214" />
    <sodipodi:guide
       position="180.63754,234.65171"
       orientation="0,1"
       id="guide4216" />
    <sodipodi:guide
       position="178.86659,201.44628"
       orientation="0,1"
       id="guide4218" />
    <sodipodi:guide
       position="175.76741,170.01181"
       orientation="0,1"
       id="guide4220" />
    <sodipodi:guide
       position="181.52302,133.7072"
       orientation="0,1"
       id="guide4222" />
    <sodipodi:guide
       position="167.35537,234.65171"
       orientation="1,0"
       id="guide4224" />
    <sodipodi:guide
       position="173.99646,154.95868"
       orientation="1,0"
       id="guide4226" />
    <sodipodi:guide
       position="211.18654,195.24793"
       orientation="1,0"
       id="guide4228" />
    <sodipodi:guide
       position="218.71311,139.02007"
       orientation="1,0"
       id="guide4230" />
  </sodipodi:namedview>
  <g
     inkscape:groupmode="layer"
     id="layer2"
     inkscape:label="hateb logo">
    <path
       style="opacity:0.97000002;fill:#ffffff;fill-opacity:1;stroke:none;stroke-width:0.025;stroke-miterlimit:4;stroke-dasharray:0.1, 0.02500000000000000;stroke-dashoffset:0;stroke-opacity:1"
       d="M 0 0 L 0 500 L 500 500 L 500 0 L 0 0 z M 113 136 L 171.42383 136 L 171.42383 136.29297 C 182.05031 136.3446 194.45648 136.39064 211.29297 136.39062 C 231.25545 136.39063 248.14846 141.17878 261.23047 149.33984 C 274.31248 157.50089 281.8125 171.38629 281.8125 194.28711 C 281.8125 210.147 275.78514 223.4459 262.70312 233.36719 C 257.13612 237.58917 250.44557 239.59282 243.06445 240.51367 C 253.5528 242.2157 262.95931 245.37718 270.63672 250.77344 C 283.71873 259.96846 291.80858 275.61379 291.80859 301.41602 C 291.80859 337.15453 259.4445 364 219.51953 364 C 198.19842 364 183.86024 363.94281 171.42383 363.89062 L 171.42383 364 L 113 364 L 113 136 z M 331.9375 136.58789 L 383.2793 136.58789 L 383.2793 288.19531 L 331.9375 288.19531 L 331.9375 136.58789 z M 199.45312 186.82812 L 171.42383 187.12305 L 171.42383 231.19727 L 200.04492 231.19727 C 200.04492 231.19727 223.35547 230.60961 223.35547 211.51172 C 223.35547 187.12519 199.45314 186.82814 199.45312 186.82812 z M 171.42383 272.91797 L 171.42383 321.69141 L 205.08398 321.69141 C 205.08398 321.69141 232.50195 321.04124 232.50195 299.90625 C 232.50195 272.91848 206.47461 272.91797 206.47461 272.91797 L 171.42383 272.91797 z M 358.19922 304.64844 A 29.80141 29.675182 0 0 1 388 334.32422 A 29.80141 29.675182 0 0 1 358.19922 364 A 29.80141 29.675182 0 0 1 328.39648 334.32422 A 29.80141 29.675182 0 0 1 358.19922 304.64844 z "
       id="rect14262" />
    <g
       id="g4284"
       style="fill:#ffffff;fill-opacity:1"
       transform="matrix(1.3329,0,0,1.3272543,0.28665273,0.84558863)" />
  </g>
</svg>
