<?xml version="1.0" encoding="UTF-8" standalone="no"?>
<!-- Created with Inkscape (http://www.inkscape.org/) -->

<svg
   xmlns:dc="http://purl.org/dc/elements/1.1/"
   xmlns:cc="http://creativecommons.org/ns#"
   xmlns:rdf="http://www.w3.org/1999/02/22-rdf-syntax-ns#"
   xmlns:svg="http://www.w3.org/2000/svg"
   xmlns="http://www.w3.org/2000/svg"
   xmlns:sodipodi="http://sodipodi.sourceforge.net/DTD/sodipodi-0.dtd"
   xmlns:inkscape="http://www.inkscape.org/namespaces/inkscape"
   id="svg2"
   version="1.1"
   inkscape:version="0.91 r"
   xml:space="preserve"
   width="500"
   height="500"
   viewBox="0 0 499.99998 500.00001"
   sodipodi:docname="Instagram_logo_4_2016_invert.svg"><metadata
     id="metadata8"><rdf:RDF><cc:Work
         rdf:about=""><dc:format>image/svg+xml</dc:format><dc:type
           rdf:resource="http://purl.org/dc/dcmitype/StillImage" /><dc:title /></cc:Work></rdf:RDF></metadata><defs
     id="defs6" /><sodipodi:namedview
     pagecolor="#f4f4f4"
     bordercolor="#666666"
     borderopacity="1"
     objecttolerance="10"
     gridtolerance="10"
     guidetolerance="10"
     inkscape:pageopacity="1"
     inkscape:pageshadow="2"
     inkscape:window-width="1733"
     inkscape:window-height="1018"
     id="namedview4"
     showgrid="false"
     inkscape:zoom="1.302"
     inkscape:cx="250"
     inkscape:cy="250"
     inkscape:window-x="0"
     inkscape:window-y="0"
     inkscape:window-maximized="0"
     inkscape:current-layer="g10"
     inkscape:showpageshadow="false"
     showguides="false"
     units="px"
     width="500mm" /><g
     id="g10"
     inkscape:groupmode="layer"
     inkscape:label="ink_ext_XXXXXX"
     transform="matrix(1.25,0,0,-1.25,0,500.00003)"
     style="opacity:1"><path
       style="opacity:1;fill:#ffffff;fill-opacity:1;stroke:none;stroke-width:2;stroke-linecap:round;stroke-linejoin:round;stroke-miterlimit:4;stroke-dasharray:none;stroke-dashoffset:0;stroke-opacity:1"
       d="M 0 0 L 0 500 L 500 500 L 500 0 L 0 0 z M 250 75 C 297.5268 75 303.48673 75.201072 322.15234 76.052734 C 340.77906 76.902309 353.49957 79.861825 364.63086 84.1875 C 376.13866 88.65975 385.89944 94.642331 395.62891 104.37109 C 405.35767 114.09986 411.34026 123.86134 415.8125 135.36914 C 420.13818 146.50043 423.09769 159.22094 423.94727 177.84766 C 424.79892 196.51327 425 202.47251 425 250 C 425 297.5268 424.79892 303.48673 423.94727 322.15234 C 423.09769 340.77906 420.13817 353.49965 415.8125 364.63086 C 411.34026 376.13866 405.35767 385.89952 395.62891 395.62891 C 385.89944 405.35767 376.13866 411.34033 364.63086 415.8125 C 353.49957 420.13813 340.77906 423.09766 322.15234 423.94727 C 303.48673 424.79877 297.5268 425 250 425 C 202.4725 425 196.51327 424.79877 177.84766 423.94727 C 159.22096 423.09766 146.49869 420.13813 135.36719 415.8125 C 123.85939 411.34033 114.10021 405.35767 104.37109 395.62891 C 94.64226 385.89952 88.659675 376.13866 84.1875 364.63086 C 79.861587 353.49965 76.902878 340.77906 76.052734 322.15234 C 75.201226 303.48673 75 297.5268 75 250 C 75 202.47251 75.201226 196.51327 76.052734 177.84766 C 76.902878 159.22094 79.861588 146.50043 84.1875 135.36914 C 88.659675 123.86134 94.64226 114.09986 104.37109 104.37109 C 114.10021 94.642331 123.85939 88.65975 135.36719 84.1875 C 146.49869 79.861825 159.22096 76.902309 177.84766 76.052734 C 196.51327 75.201072 202.4725 75 250 75 z M 250 106.53125 C 203.27275 106.53125 197.73821 106.7108 179.28516 107.55273 C 162.22283 108.33076 152.9556 111.18154 146.78906 113.57812 C 138.62045 116.75274 132.79184 120.54381 126.66797 126.66797 C 120.54437 132.79143 116.75267 138.62051 113.57812 146.78906 C 111.18153 152.95559 108.33124 162.22283 107.55273 179.28516 C 106.71073 197.73821 106.53125 203.27276 106.53125 250 C 106.53125 296.72655 106.71073 302.26181 107.55273 320.71484 C 108.33124 337.77717 111.18154 347.04441 113.57812 353.21094 C 116.75267 361.37956 120.54436 367.20843 126.66797 373.33203 C 132.79156 379.45618 138.62045 383.24733 146.78906 386.42188 C 152.9556 388.81847 162.22283 391.66931 179.28516 392.44727 C 197.73612 393.28934 203.26927 393.46875 250 393.46875 C 296.73001 393.46875 302.26458 393.28934 320.71484 392.44727 C 337.77718 391.66931 347.04441 388.81847 353.21094 386.42188 C 361.37949 383.24733 367.20857 379.45619 373.33203 373.33203 C 379.45618 367.20843 383.24726 361.37956 386.42188 353.21094 C 388.81848 347.04441 391.66925 337.77717 392.44727 320.71484 C 393.2892 302.26181 393.46875 296.72655 393.46875 250 C 393.46875 203.27276 393.2892 197.73821 392.44727 179.28516 C 391.66925 162.22283 388.81847 152.95559 386.42188 146.78906 C 383.24726 138.62051 379.45618 132.79213 373.33203 126.66797 C 367.20857 120.54451 361.37949 116.75274 353.21094 113.57812 C 347.04441 111.18154 337.77718 108.33076 320.71484 107.55273 C 302.26181 106.7108 296.72655 106.53125 250 106.53125 z M 343.41602 135.58398 C 355.01412 135.58398 364.41602 144.98587 364.41602 156.58398 C 364.41602 168.18208 355.01412 177.58398 343.41602 177.58398 C 331.8186 177.58398 322.41602 168.18208 322.41602 156.58398 C 322.41602 144.98587 331.8186 135.58398 343.41602 135.58398 z M 250 160.13477 C 299.63094 160.13477 339.86523 200.36837 339.86523 250 C 339.86523 299.63094 299.63094 339.86523 250 339.86523 C 200.36836 339.86523 160.13477 299.63094 160.13477 250 C 160.13477 200.36838 200.36836 160.13477 250 160.13477 z M 250 191.66602 C 217.78289 191.66602 191.66602 217.7829 191.66602 250 C 191.66602 282.21643 217.78289 308.33398 250 308.33398 C 282.21641 308.33398 308.33398 282.21643 308.33398 250 C 308.33398 217.7829 282.21641 191.66602 250 191.66602 z "
       transform="matrix(0.8,0,0,-0.8,-1.2207031e-5,400.00002)"
       id="rect4789" /><g
       id="g12"
       transform="matrix(0.05557309,0,0,0.05557309,59.999994,60.000002)"
       style="fill:#ffffff;fill-opacity:1" /></g></svg>