<?xml version="1.0" encoding="UTF-8" standalone="no"?>
<!-- Created with Inkscape (http://www.inkscape.org/) -->

<svg
   xmlns:dc="http://purl.org/dc/elements/1.1/"
   xmlns:cc="http://creativecommons.org/ns#"
   xmlns:rdf="http://www.w3.org/1999/02/22-rdf-syntax-ns#"
   xmlns:svg="http://www.w3.org/2000/svg"
   xmlns="http://www.w3.org/2000/svg"
   xmlns:sodipodi="http://sodipodi.sourceforge.net/DTD/sodipodi-0.dtd"
   xmlns:inkscape="http://www.inkscape.org/namespaces/inkscape"
   width="500"
   height="500"
   viewBox="0 0 500.00001 500.00001"
   id="svg4583"
   version="1.1"
   inkscape:version="0.91 r"
   sodipodi:docname="Instagram_logo_invert.svg">
  <defs
     id="defs4585" />
  <sodipodi:namedview
     id="base"
     pagecolor="#f0f0f0"
     bordercolor="#666666"
     borderopacity="1.0"
     inkscape:pageopacity="0"
     inkscape:pageshadow="2"
     inkscape:zoom="1.694"
     inkscape:cx="250"
     inkscape:cy="250"
     inkscape:document-units="px"
     inkscape:current-layer="layer1"
     showgrid="false"
     units="px"
     inkscape:window-width="1920"
     inkscape:window-height="1028"
     inkscape:window-x="0"
     inkscape:window-y="0"
     inkscape:window-maximized="1" />
  <metadata
     id="metadata4588">
    <rdf:RDF>
      <cc:Work
         rdf:about="">
        <dc:format>image/svg+xml</dc:format>
        <dc:type
           rdf:resource="http://purl.org/dc/dcmitype/StillImage" />
        <dc:title></dc:title>
      </cc:Work>
    </rdf:RDF>
  </metadata>
  <g
     inkscape:label="Instagram"
     inkscape:groupmode="layer"
     id="layer1"
     transform="translate(0,-552.36216)">
    <path
       inkscape:connector-curvature="0"
       style="display:inline;opacity:0.97000002;fill:#ffffff;fill-opacity:1;stroke:none;stroke-width:0.025;stroke-miterlimit:4;stroke-dasharray:0.1, 0.025;stroke-dashoffset:0;stroke-opacity:1"
       d="m 0,552.36213 0,500.00007 500,0 0,-500.00007 -500,0 z m 116.98047,75 266.03515,0 c 23.08968,0 41.98438,18.89476 41.98438,41.98438 l 0,266.03127 c 0,23.0922 -18.8947,41.9844 -41.98438,41.9844 l -266.03515,0 C 93.89339,977.36218 75,958.46998 75,935.37779 l 0,-266.03127 c 0,-23.08962 18.89339,-41.98438 41.98047,-41.98438 z m 216.23828,38.49609 c -8.97556,0 -16.32617,7.34934 -16.32617,16.33008 l 0,36.53906 c -2e-5,8.98073 7.35061,16.32422 16.32617,16.32422 l 36.54297,0 c 8.97815,0 16.32422,-7.34349 16.32422,-16.32422 l 0,-36.53906 c 0,-8.98074 -7.34607,-16.33008 -16.32422,-16.33008 l -36.54297,0 z m -83.57031,69.19336 c -37.14408,0 -67.25391,30.1085 -67.25391,67.25 0,37.1415 30.10983,67.2539 67.25391,67.2539 37.13888,0 67.24414,-30.1124 67.24414,-67.2539 -4e-5,-37.1415 -30.10526,-67.25 -67.24414,-67.25 z m -134.11524,40.4336 0,145.38281 c 0,8.9782 7.34543,16.3242 16.32618,16.3242 l 237.90234,0 c 8.97815,0 16.32422,-7.346 16.32422,-16.3242 l 0,-145.38281 -32.13477,0 c 2.19775,8.5736 3.36914,17.5575 3.36914,26.8164 0,59.47151 -48.20558,107.68161 -107.67187,107.68161 -59.47149,0 -107.6875,-48.2101 -107.6875,-107.6816 0,-9.2589 1.1732,-18.2428 3.37109,-26.8164 l -29.79883,0 z"
       id="rect8097" />
  </g>
</svg>
