<?xml version="1.0" encoding="UTF-8" standalone="no"?>
<!-- Created with Inkscape (http://www.inkscape.org/) -->

<svg
   xmlns:dc="http://purl.org/dc/elements/1.1/"
   xmlns:cc="http://creativecommons.org/ns#"
   xmlns:rdf="http://www.w3.org/1999/02/22-rdf-syntax-ns#"
   xmlns:svg="http://www.w3.org/2000/svg"
   xmlns="http://www.w3.org/2000/svg"
   xmlns:sodipodi="http://sodipodi.sourceforge.net/DTD/sodipodi-0.dtd"
   xmlns:inkscape="http://www.inkscape.org/namespaces/inkscape"
   width="500"
   height="500"
   viewBox="0 0 499.99998 499.99998"
   id="svg4586"
   version="1.1"
   inkscape:version="0.91 r"
   sodipodi:docname="line_logo_invert.svg">
  <defs
     id="defs4588" />
  <sodipodi:namedview
     id="base"
     pagecolor="#fbfbfb"
     bordercolor="#666666"
     borderopacity="1.0"
     inkscape:pageopacity="0"
     inkscape:pageshadow="2"
     inkscape:zoom="1.694"
     inkscape:cx="250"
     inkscape:cy="250"
     inkscape:document-units="px"
     inkscape:current-layer="layer1"
     showgrid="false"
     units="px"
     inkscape:window-width="1920"
     inkscape:window-height="1028"
     inkscape:window-x="0"
     inkscape:window-y="0"
     inkscape:window-maximized="1" />
  <metadata
     id="metadata4591">
    <rdf:RDF>
      <cc:Work
         rdf:about="">
        <dc:format>image/svg+xml</dc:format>
        <dc:type
           rdf:resource="http://purl.org/dc/dcmitype/StillImage" />
        <dc:title></dc:title>
      </cc:Work>
    </rdf:RDF>
  </metadata>
  <g
     inkscape:label="line"
     inkscape:groupmode="layer"
     id="layer1"
     transform="translate(0,-552.36209)">
    <path
       style="opacity:0.97000002;fill:#ffffff;fill-opacity:1;stroke:none;stroke-width:0.025;stroke-miterlimit:4;stroke-dasharray:0.1, 0.025;stroke-dashoffset:0;stroke-opacity:1"
       d="m -1.4802319e-5,552.36211 0,499.99989 499.999974802319,0 0,-499.99989 -499.999974802319,0 z M 250.07808,632.65311 c 100.37968,0 182.05078,66.27505 182.05078,147.72263 0,32.60486 -12.6423,61.96428 -39.0313,90.89257 l 0.01,-0.004 c -38.194,43.96609 -123.60356,97.51964 -143.02924,105.69726 -19.43741,8.18349 -16.56475,-5.20874 -15.76953,-9.8125 0.46364,-2.73761 2.59571,-15.58399 2.59571,-15.58399 0.61915,-4.65657 1.25002,-11.85423 -0.58985,-16.46093 -2.0394,-5.0615 -10.10964,-7.69627 -16.03125,-8.97265 C 132.78841,914.56203 68.025365,853.40216 68.025365,780.37574 c 0,-81.44758 81.670115,-147.72263 182.052715,-147.72263 z M 142.64255,737.407 c -5.2643,0 -9.54102,4.28389 -9.54102,9.55078 l 0,72.33593 c 0,5.26689 4.27672,9.55078 9.54102,9.55078 l 36.17383,0 c 5.2643,0 9.54101,-4.28389 9.54101,-9.55078 0,-5.26102 -4.27671,-9.54492 -9.54101,-9.54492 l -26.625,0 0,-62.79101 c 0,-5.26689 -4.28453,-9.55078 -9.54883,-9.55078 z m 64.04297,0 c -5.2643,0 -9.54102,4.28389 -9.54102,9.55078 l 0,72.33593 c 0,5.26689 4.27672,9.55078 9.54102,9.55078 5.26429,0 9.54296,-4.28389 9.54296,-9.55078 l 0,-72.33593 c 0,-5.26689 -4.27867,-9.55078 -9.54296,-9.55078 z m 32.8203,0 c -1.02117,0 -2.04431,0.16161 -3.0332,0.49024 -3.89394,1.30278 -6.51563,4.94386 -6.51563,9.06054 l 0,72.33593 c 0,5.26689 4.27965,9.55078 9.54102,9.55078 5.2731,0 9.55078,-4.28389 9.55078,-9.55078 l 0,-44.74609 37.0664,50.48047 c 1.79879,2.3855 4.64953,3.8164 7.62499,3.8164 1.02998,0 2.05308,-0.16648 3.03318,-0.49804 3.9116,-1.29105 6.5235,-4.93605 6.5235,-9.05274 l 0,-72.33593 c 0,-5.26689 -4.2748,-9.55078 -9.5391,-9.55078 -5.26429,0 -9.54882,4.28389 -9.54882,9.55078 l 0,44.74999 -37.07421,-50.48046 c -1.78998,-2.39137 -4.64757,-3.82031 -7.62891,-3.82031 z m 86.15034,0 c -5.2643,0 -9.539,4.28389 -9.539,9.55078 l 0,72.33593 c 0,5.26689 4.2835,9.55078 9.539,9.55078 l 36.1758,0 c 5.2643,0 9.5489,-4.28389 9.5489,-9.55078 0,-5.26102 -4.2846,-9.54492 -9.5489,-9.54492 l -26.6269,0 0,-17.07617 26.6269,0 c 5.2643,0 9.5489,-4.28782 9.5489,-9.54297 0,-5.26983 -4.2846,-9.54688 -9.5489,-9.54688 l -26.6269,0 0,-17.08592 26.6269,0 c 5.2643,0 9.5489,-4.28098 9.5489,-9.53907 0,-5.26689 -4.2846,-9.55078 -9.5489,-9.55078 l -36.1758,0 z"
       id="rect16229"
       inkscape:connector-curvature="0" />
  </g>
</svg>
