<?xml version="1.0" encoding="UTF-8" standalone="no"?>
<!-- Created with Inkscape (http://www.inkscape.org/) -->

<svg
   xmlns:dc="http://purl.org/dc/elements/1.1/"
   xmlns:cc="http://creativecommons.org/ns#"
   xmlns:rdf="http://www.w3.org/1999/02/22-rdf-syntax-ns#"
   xmlns:svg="http://www.w3.org/2000/svg"
   xmlns="http://www.w3.org/2000/svg"
   xmlns:sodipodi="http://sodipodi.sourceforge.net/DTD/sodipodi-0.dtd"
   xmlns:inkscape="http://www.inkscape.org/namespaces/inkscape"
   width="500"
   height="500"
   viewBox="0 0 500.00001 500.00001"
   id="svg4583"
   version="1.1"
   inkscape:version="0.91 r"
   sodipodi:docname="pinterest_logo_invert.svg">
  <defs
     id="defs4585" />
  <sodipodi:namedview
     id="base"
     pagecolor="#f0f0f0"
     bordercolor="#666666"
     borderopacity="1.0"
     inkscape:pageopacity="0"
     inkscape:pageshadow="2"
     inkscape:zoom="1.694"
     inkscape:cx="250"
     inkscape:cy="250"
     inkscape:document-units="px"
     inkscape:current-layer="layer1"
     showgrid="false"
     units="px"
     inkscape:window-width="1920"
     inkscape:window-height="1028"
     inkscape:window-x="0"
     inkscape:window-y="0"
     inkscape:window-maximized="1" />
  <metadata
     id="metadata4588">
    <rdf:RDF>
      <cc:Work
         rdf:about="">
        <dc:format>image/svg+xml</dc:format>
        <dc:type
           rdf:resource="http://purl.org/dc/dcmitype/StillImage" />
        <dc:title></dc:title>
      </cc:Work>
    </rdf:RDF>
  </metadata>
  <g
     inkscape:label="Pinterest"
     inkscape:groupmode="layer"
     id="layer1"
     transform="translate(0,-552.36216)">
    <path
       inkscape:connector-curvature="0"
       style="opacity:0.97000002;fill:#ffffff;fill-opacity:1;stroke:none;stroke-width:0.025;stroke-miterlimit:4;stroke-dasharray:0.1, 0.025;stroke-dashoffset:0;stroke-opacity:1"
       d="m 0,552.36214 0,500.00006 500,0 0,-500.00006 -500,0 z m 250,75 c 96.6494,0 175,78.35139 175,175 0,96.65055 -78.3506,175 -175,175 -96.64916,0 -175,-78.34945 -175,-175 0,-96.64861 78.35084,-175 175,-175 z m -0.21289,13.19336 c -89.36216,0 -161.80664,72.4424 -161.80664,161.80664 0,68.5492 42.64877,127.09939 102.83984,150.67578 -1.41482,-12.80222 -2.69223,-32.43837 0.5625,-46.41406 2.93949,-12.62941 18.97266,-80.43164 18.97266,-80.43164 0,0 -4.83984,-9.69265 -4.83985,-24.02344 0,-22.49868 13.04038,-39.29492 29.27735,-39.29492 13.80473,0 20.47461,10.36481 20.47461,22.79297 0,13.8826 -8.84023,34.63837 -13.40235,53.875 -3.81206,16.10534 8.07713,29.23828 23.96094,29.23828 28.75912,0 50.86524,-30.32383 50.86524,-74.0957 0,-38.7416 -27.83911,-65.83008 -67.58789,-65.83008 -46.03878,0 -73.06055,34.53334 -73.06055,70.2207 0,13.90715 5.35605,28.81963 12.04101,36.92578 1.32051,1.60173 1.51411,3.00584 1.1211,4.64063 -1.22864,5.11097 -3.95772,16.10135 -4.49414,18.34961 -0.70655,2.96236 -2.34452,3.59006 -5.41016,2.16406 -20.20944,-9.4082 -32.8457,-38.95239 -32.8457,-62.68555 0,-51.04166 37.08736,-97.91601 106.91406,-97.91601 56.13038,0 99.75,39.99791 99.75,93.45312 0,55.76521 -35.16035,100.64258 -83.96289,100.64258 -16.39569,0 -31.80997,-8.5161 -37.08594,-18.57813 0,0 -8.11305,30.89586 -10.08008,38.46485 -3.65432,14.05542 -13.51581,31.67222 -20.11132,42.41992 15.13958,4.6864 31.22863,7.21484 47.9082,7.21484 89.36385,0 161.80859,-72.44484 161.80859,-161.80859 0,-89.36424 -72.44474,-161.80664 -161.80859,-161.80664 z"
       id="rect18153" />
  </g>
</svg>
