<?xml version="1.0" encoding="UTF-8" standalone="no"?>
<!-- Created with Inkscape (http://www.inkscape.org/) -->

<svg
   xmlns:dc="http://purl.org/dc/elements/1.1/"
   xmlns:cc="http://creativecommons.org/ns#"
   xmlns:rdf="http://www.w3.org/1999/02/22-rdf-syntax-ns#"
   xmlns:svg="http://www.w3.org/2000/svg"
   xmlns="http://www.w3.org/2000/svg"
   xmlns:sodipodi="http://sodipodi.sourceforge.net/DTD/sodipodi-0.dtd"
   xmlns:inkscape="http://www.inkscape.org/namespaces/inkscape"
   width="500"
   height="500"
   viewBox="0 0 500.00001 500.00001"
   id="svg4587"
   version="1.1"
   inkscape:version="0.91 r"
   sodipodi:docname="pinterest_logo_2_invert.svg">
  <defs
     id="defs4589" />
  <sodipodi:namedview
     id="base"
     pagecolor="#f2f2f2"
     bordercolor="#666666"
     borderopacity="1.0"
     inkscape:pageopacity="0"
     inkscape:pageshadow="2"
     inkscape:zoom="1.694"
     inkscape:cx="250"
     inkscape:cy="250"
     inkscape:document-units="px"
     inkscape:current-layer="layer1"
     showgrid="false"
     units="px"
     inkscape:window-width="1920"
     inkscape:window-height="1028"
     inkscape:window-x="0"
     inkscape:window-y="0"
     inkscape:window-maximized="1" />
  <metadata
     id="metadata4592">
    <rdf:RDF>
      <cc:Work
         rdf:about="">
        <dc:format>image/svg+xml</dc:format>
        <dc:type
           rdf:resource="http://purl.org/dc/dcmitype/StillImage" />
        <dc:title></dc:title>
      </cc:Work>
    </rdf:RDF>
  </metadata>
  <g
     inkscape:label="Pinterest"
     inkscape:groupmode="layer"
     id="layer1"
     transform="translate(0,-552.36216)">
    <path
       inkscape:connector-curvature="0"
       style="opacity:1;fill:#ffffff;fill-opacity:1;stroke:none;stroke-width:0.025;stroke-miterlimit:4;stroke-dasharray:0.1, 0.025;stroke-dashoffset:0;stroke-opacity:1"
       d="m -2e-5,552.36214 0,500.00006 500.00004,0 0,-500.00006 -500.00004,0 z m 253.00977,75 c 65.42274,-0.15713 122.90692,34.64832 131.53515,97.32812 10.73049,78.06262 -33.17093,162.60947 -111.80273,156.52344 -21.31093,-1.65767 -30.24855,-12.21964 -46.96094,-22.36914 -9.19575,48.18944 -20.40553,94.38515 -53.66406,118.51758 -10.25056,-72.83802 15.07656,-127.52432 26.84961,-185.59375 -20.06318,-33.75378 2.4098,-101.71917 44.70703,-84.97266 52.05341,20.59299 -45.08159,125.52157 20.13086,138.64649 68.08724,13.67178 95.87533,-118.1408 53.66211,-161.00196 -60.99192,-61.89753 -177.56118,-1.4181 -163.22461,87.21094 3.4865,21.65086 25.85989,28.23006 8.9375,58.13867 -39.0464,-8.66244 -50.68456,-39.45833 -49.20117,-80.50781 2.42845,-67.18337 60.38009,-114.23071 118.51953,-120.74023 6.8925,-0.7724 13.74385,-1.16344 20.51172,-1.17969 z"
       id="rect5552" />
  </g>
</svg>
