<?xml version="1.0" encoding="UTF-8" standalone="no"?>
<!-- Created with Inkscape (http://www.inkscape.org/) -->

<svg
   xmlns:dc="http://purl.org/dc/elements/1.1/"
   xmlns:cc="http://creativecommons.org/ns#"
   xmlns:rdf="http://www.w3.org/1999/02/22-rdf-syntax-ns#"
   xmlns:svg="http://www.w3.org/2000/svg"
   xmlns="http://www.w3.org/2000/svg"
   xmlns:sodipodi="http://sodipodi.sourceforge.net/DTD/sodipodi-0.dtd"
   xmlns:inkscape="http://www.inkscape.org/namespaces/inkscape"
   width="500"
   height="500"
   viewBox="0 0 500.00001 500.00001"
   id="svg4592"
   version="1.1"
   inkscape:version="0.91 r"
   sodipodi:docname="rss_logo_invert.svg">
  <defs
     id="defs4594" />
  <sodipodi:namedview
     id="base"
     pagecolor="#f8f8f8"
     bordercolor="#666666"
     borderopacity="1.0"
     inkscape:pageopacity="0"
     inkscape:pageshadow="2"
     inkscape:zoom="1.694"
     inkscape:cx="250"
     inkscape:cy="250"
     inkscape:document-units="px"
     inkscape:current-layer="layer1"
     showgrid="false"
     units="px"
     inkscape:window-width="1920"
     inkscape:window-height="1028"
     inkscape:window-x="0"
     inkscape:window-y="0"
     inkscape:window-maximized="1" />
  <metadata
     id="metadata4597">
    <rdf:RDF>
      <cc:Work
         rdf:about="">
        <dc:format>image/svg+xml</dc:format>
        <dc:type
           rdf:resource="http://purl.org/dc/dcmitype/StillImage" />
        <dc:title></dc:title>
      </cc:Work>
    </rdf:RDF>
  </metadata>
  <g
     inkscape:label="rss"
     inkscape:groupmode="layer"
     id="layer1"
     transform="translate(0,-552.36216)">
    <path
       inkscape:connector-curvature="0"
       style="opacity:0.97000002;fill:#ffffff;fill-opacity:1;stroke:none;stroke-width:0.025;stroke-miterlimit:4;stroke-dasharray:0.1, 0.025;stroke-dashoffset:0;stroke-opacity:1"
       d="m 0,552.36214 0,500.00006 500,0 0,-500.00006 -500,0 z m 88.7168,74.46094 c 184.61601,0 334.8145,150.85703 334.8145,336.28515 l -64.45318,0 c 0,-149.88554 -121.28437,-271.83007 -270.36132,-271.83007 l 0,-64.45508 z m -0.0937,114.25976 c 121.88711,0 221.05078,99.57107 221.05078,221.95899 l -64.45313,0 c 0,-42.14181 -16.29842,-81.72227 -45.89453,-111.45703 C 169.7731,821.88947 130.45981,805.53597 88.6231,805.53597 l 0,-64.45313 z m 44.58984,132.35938 c 24.65235,0 44.64453,19.98435 44.64453,44.64258 0,24.6582 -19.99218,44.64453 -44.64453,44.64453 -24.64726,0 -44.64258,-19.98633 -44.64258,-44.64453 0,-24.65823 19.99532,-44.64258 44.64258,-44.64258 z"
       id="rect22188" />
  </g>
</svg>
