<?xml version="1.0" encoding="UTF-8" standalone="no"?>
<!-- Created with Inkscape (http://www.inkscape.org/) -->

<svg
   xmlns:dc="http://purl.org/dc/elements/1.1/"
   xmlns:cc="http://creativecommons.org/ns#"
   xmlns:rdf="http://www.w3.org/1999/02/22-rdf-syntax-ns#"
   xmlns:svg="http://www.w3.org/2000/svg"
   xmlns="http://www.w3.org/2000/svg"
   xmlns:sodipodi="http://sodipodi.sourceforge.net/DTD/sodipodi-0.dtd"
   xmlns:inkscape="http://www.inkscape.org/namespaces/inkscape"
   width="500"
   height="500"
   viewBox="0 0 500.00001 500.00001"
   id="svg4587"
   version="1.1"
   inkscape:version="0.91 r"
   sodipodi:docname="youtube_logo_invert.svg">
  <defs
     id="defs4589" />
  <sodipodi:namedview
     id="base"
     pagecolor="#f0f0f0"
     bordercolor="#666666"
     borderopacity="1.0"
     inkscape:pageopacity="0"
     inkscape:pageshadow="2"
     inkscape:zoom="1.694"
     inkscape:cx="250"
     inkscape:cy="250"
     inkscape:document-units="px"
     inkscape:current-layer="layer1"
     showgrid="false"
     units="px"
     inkscape:window-width="1920"
     inkscape:window-height="1028"
     inkscape:window-x="0"
     inkscape:window-y="0"
     inkscape:window-maximized="1" />
  <metadata
     id="metadata4592">
    <rdf:RDF>
      <cc:Work
         rdf:about="">
        <dc:format>image/svg+xml</dc:format>
        <dc:type
           rdf:resource="http://purl.org/dc/dcmitype/StillImage" />
        <dc:title></dc:title>
      </cc:Work>
    </rdf:RDF>
  </metadata>
  <g
     inkscape:label="youtube"
     inkscape:groupmode="layer"
     id="layer1"
     transform="translate(0,-552.36216)">
    <path
       inkscape:connector-curvature="0"
       style="opacity:0.97000002;fill:#ffffff;fill-opacity:1;stroke:none;stroke-width:0.025;stroke-miterlimit:4;stroke-dasharray:0.1, 0.025;stroke-dashoffset:0;stroke-opacity:1"
       d="m 0,552.36214 0,500.00006 500,0 0,-500.00006 -500,0 z m 156.5,74.43555 21,0 14.03516,52.67578 13.96484,-52.67578 21,0 -25,80 0,55 -20,0 0,-55 c 0,0 -20.72462,-67.431 -25,-80 z m 93,33.26367 c 8,0 15.93801,2.82833 21,9.73633 3.832,5.102 6,13.207 6,24 l 0,36 c 0,10.7329 -1.76761,18.14927 -5.59961,23.20117 C 265.8394,759.88596 257.5,763.534 249.5,763.53402 c -8,-3e-5 -16.1957,-3.64806 -21.25,-10.53516 -3.893,-5.0519 -5.75,-12.46827 -5.75,-23.20117 l 0.0195,-35.91211 c 0,-10.793 2.08747,-18.98589 5.98047,-24.08789 5.0543,-6.908 11.94489,-9.73633 21,-9.73633 z m 41,0.73633 19,0 0,75 0,7 c 0.443,2.8071 1.63478,3.83203 4.05078,3.83203 3.637,0 6.92822,-3.16013 10.94922,-8.83203 l 0,-77 19,0 0,101 -19,0 0,-11 c -7.203,8.25589 -13.30884,12.42578 -19.96484,12.42578 -5.84,0 -9.89478,-2.75553 -11.92578,-7.73242 -1.23402,-3.027 -2.10938,-7.75156 -2.10938,-14.69336 l 0,-80 z m -41,16.3125 c -5.9,0 -9,4.6875 -8,14.6875 l 0,40 c -1,10 2.09805,14.96093 7.99805,14.96093 5.9,0 9.00195,-4.96093 8.00195,-14.96093 l 0.01,-40 c 1,-10 -2.10977,-14.6875 -8.00977,-14.6875 z m 0.43555,91.73828 0.13086,0 c 0,0 62.67984,8.1e-4 104.46484,3.00781 5.836,0.692 18.56592,0.75084 29.91992,12.58984 8.953,9.02101 11.8711,29.50782 11.8711,29.50782 0,0 2.98242,24.05432 2.98242,48.11132 l 0,22.55274 c 0,24.05429 -2.98242,48.10937 -2.98242,48.10937 0,0 -2.9181,20.48406 -11.8711,29.50586 -11.354,11.84184 -24.08392,11.89962 -29.91992,12.59375 C 312.74625,977.83168 250,977.92659 250,977.92659 c 0,0 -77.63639,-0.70547 -101.52539,-2.98828 -6.644,-1.24024 -21.56683,-0.86324 -32.92383,-12.70508 -8.95399,-9.0218 -11.86914,-29.50586 -11.86914,-29.50586 0,0 -2.98633,-24.05508 -2.98633,-48.10937 l 0,-22.55274 c 0,-24.057 2.98633,-48.11132 2.98633,-48.11132 0,0 2.91515,-20.48681 11.86914,-29.50782 11.357,-11.839 24.07997,-11.89784 29.91797,-12.58984 41.785,-3.00702 104.4668,-3.00781 104.4668,-3.00781 z m -61.6543,35.19726 -63,0.0195 0,18.98047 21,0 0,115 20,0 0,-115 22,0 0,-19 z m 65,0 0,134 18,0 0.0254,-10.06836 c 6.049,7.48401 12.64503,11.35743 19.08203,11.35743 7.209,0 12.47658,-3.85938 14.89258,-11.28907 1.209,-4.2363 2,-10.75819 2,-20 l 0,-40 c 0,-9.465 -1.21287,-15.93607 -2.42187,-19.95507 -2.41601,-7.48501 -7.26171,-11.6504 -14.47071,-11.6504 -6.66,0 -13.27895,4.09697 -19.12695,11.29297 l 0.0195,-43.6875 -18,0 z m 93.77734,32.55079 c -9.24201,-1e-5 -16.44954,3.62098 -21.68554,10.45898 -3.846,5.054 -6.0918,13.31023 -6.0918,23.99023 l 0,35 c 0,10.61881 2.46845,18.05274 6.31445,23.05274 5.234,6.8281 12.4411,10.23633 21.91211,10.23633 9.459,0 16.88849,-3.57819 21.89649,-10.83399 2.201,-3.20319 3.62337,-6.83279 4.23437,-10.8457 0.163,-1.81289 0.64258,-5.94139 0.64258,-11.77539 l 0,-2.83399 -18.99805,0 c 0,7.2637 0.0313,11.58166 -0.13672,12.56836 -1.033,4.8391 -3.63089,7.26172 -8.08789,7.26172 -6.21401,0 -8.83934,-4.64494 -8.77734,-13.87305 l 0,-17.95703 36.03711,0 -0.006,-20.44336 c 0,-10.68001 -2.10172,-18.49287 -5.88672,-23.54687 -5.075,-6.838 -12.28519,-10.45898 -21.36719,-10.45898 z m -161.77734,1.44921 0,79 c 0,6.9418 0.87537,11.66636 2.10937,14.69336 2.03101,4.97689 6.08579,7.73047 11.92579,7.73047 6.65603,0 12.76184,-4.16794 19.96484,-12.42383 l 0,11 19,0 0,-100 -19,0 0,76 c -4.021,5.6719 -7.31222,8.83008 -10.94922,8.83008 -2.416,0 -3.60778,-1.02298 -4.05078,-3.83008 l 0,-7 0,-74 -19,0 z m 95.42187,15.06446 c 5.22101,0 7.57813,2.93554 7.57813,12.93554 l 0,43 c 0,10.00001 -2.35712,13.83008 -7.57813,13.83008 -2.981,0 -6.4134,-1.53314 -9.4414,-4.56055 l 0.0195,-60.64453 c 3.027,-2.988 6.44087,-4.56054 9.42187,-4.56054 z m 66.1875,0 c 6.00201,0 8.39063,2.77457 8.39063,12.01757 l 0,10.91797 -17,0.0195 0,-11.06054 0,-0.002 c 0,-9.346 2.56337,-11.89257 8.60937,-11.89257 z"
       id="rect24149" />
  </g>
</svg>
