<?xml version="1.0" encoding="UTF-8" standalone="no"?>
<!-- Created with Inkscape (http://www.inkscape.org/) -->

<svg
   xmlns:dc="http://purl.org/dc/elements/1.1/"
   xmlns:cc="http://creativecommons.org/ns#"
   xmlns:rdf="http://www.w3.org/1999/02/22-rdf-syntax-ns#"
   xmlns:svg="http://www.w3.org/2000/svg"
   xmlns="http://www.w3.org/2000/svg"
   xmlns:sodipodi="http://sodipodi.sourceforge.net/DTD/sodipodi-0.dtd"
   xmlns:inkscape="http://www.inkscape.org/namespaces/inkscape"
   width="500"
   height="500"
   viewBox="0 0 500.00001 500.00001"
   id="svg4647"
   version="1.1"
   inkscape:version="0.91 r"
   sodipodi:docname="evernote_logo.svg">
  <defs
     id="defs4649" />
  <sodipodi:namedview
     id="base"
     pagecolor="#f2f2f2"
     bordercolor="#666666"
     borderopacity="1.0"
     inkscape:pageopacity="1"
     inkscape:pageshadow="2"
     inkscape:zoom="1.01"
     inkscape:cx="303.98618"
     inkscape:cy="107.09677"
     inkscape:document-units="px"
     inkscape:current-layer="layer1"
     showgrid="false"
     units="px"
     inkscape:window-width="1920"
     inkscape:window-height="1028"
     inkscape:window-x="0"
     inkscape:window-y="0"
     inkscape:window-maximized="1" />
  <metadata
     id="metadata4652">
    <rdf:RDF>
      <cc:Work
         rdf:about="">
        <dc:format>image/svg+xml</dc:format>
        <dc:type
           rdf:resource="http://purl.org/dc/dcmitype/StillImage" />
        <dc:title></dc:title>
      </cc:Work>
    </rdf:RDF>
  </metadata>
  <g
     inkscape:label="evernote"
     inkscape:groupmode="layer"
     id="layer1"
     transform="translate(0,-552.36216)">
    <path
       d="m 335.68825,792.91582 c -5.6532,-0.16555 -11.09016,0.13279 -16.16136,0.81508 1.42739,-9.64229 6.18459,-21.47474 23.03605,-20.97914 18.65382,0.53697 21.2682,15.28807 21.33491,25.27966 -7.86616,-2.93405 -17.60369,-4.80382 -28.2096,-5.1156 z m 79.76812,-104.65614 c -3.11817,-13.96781 -13.04433,-20.85115 -22.01813,-23.55715 -9.68117,-2.92732 -29.3138,-5.9605 -53.98082,-8.39224 -19.84427,-1.95539 -43.16901,-1.80047 -57.25886,-1.43575 -1.69079,-9.69038 -9.8146,-18.5426 -18.90456,-21.60753 -24.21844,-8.15552 -61.63764,-6.18472 -71.2452,-3.93197 -7.63463,1.78507 -16.08394,5.44375 -20.78719,11.0809 -3.15406,3.7655 -5.19428,8.59048 -5.2105,15.33045 0,3.81456 0.12722,12.80053 0.24304,20.78379 0.11548,8.00924 0.24085,15.17166 0.24085,15.22073 -0.004,7.12971 -6.9115,12.93238 -15.47146,12.94201 l -39.26688,0 c -8.37616,0 -14.77594,1.17785 -19.664257,3.03606 -4.896368,1.85917 -8.364048,4.36789 -10.998712,7.3337 -5.244602,5.89025 -6.155322,13.15949 -6.133306,20.57788 0,0 0.07728,6.06153 1.822789,17.79392 1.45122,9.07836 13.21818,72.49789 24.395286,91.78534 4.33392,7.50498 7.22022,10.63055 15.73428,13.937 18.9692,6.79483 62.29867,14.35469 82.60681,16.51888 20.27099,2.17 32.99326,6.73169 40.57533,-6.56866 0.0253,-0.0329 1.51941,-3.30939 3.57365,-8.1151 6.58254,-16.68919 7.49925,-31.49615 7.49925,-42.2114 0,-1.09025 1.91047,-1.1403 1.91047,0 0,7.56469 -1.72644,34.33591 22.44485,41.51756 9.54199,2.83206 29.33565,5.35619 49.44905,7.32795 18.18685,1.74944 31.38415,7.73689 31.38415,46.77302 0,23.75009 -5.96144,27.00565 -37.1305,27.00565 -25.26742,0 -34.89683,0.54726 -34.89683,-16.2463 0,-13.57335 16.04518,-12.15102 27.93702,-12.15102 5.31158,0 1.45729,-3.30596 1.45729,-11.6795 0,-8.33028 6.22599,-13.14593 0.33586,-13.26808 -41.12052,-0.94696 -65.31712,-0.0399 -65.31712,42.98784 0,39.06105 17.86709,46.31445 76.23013,46.31445 45.7604,0 61.8907,-1.25363 80.7849,-50.30277 3.74043,-9.68275 12.7821,-39.23269 18.2547,-88.84701 3.45863,-31.37106 -3.26309,-126.05483 -8.59538,-149.95265 z m -305.49909,6.89201 c 0,0 0,0 0.0255,0 l 39.26066,0 c 2.24966,0 4.05892,-1.53295 4.06386,-3.40078 0,-0.0125 -0.47618,-28.16465 -0.47618,-35.99394 l 0,-0.0924 c 0,-6.4301 1.61199,-12.03551 4.42238,-16.73347 l 1.3425,-2.10937 c -0.1501,0.0212 -0.30065,0.0828 -0.45018,0.20786 l -76.284285,63.28964 c -0.149616,0.10297 -0.24262,0.23673 -0.285753,0.37241 1.577914,-0.6534 3.735421,-1.54642 4.04005,-1.65804 6.643303,-2.50776 14.699128,-3.88193 24.341428,-3.88193"
       style="fill:#ffffff;fill-opacity:1;fill-rule:nonzero;stroke:none"
       id="path4618"
       inkscape:connector-curvature="0" />
  </g>
</svg>
