<?xml version="1.0" encoding="UTF-8" standalone="no"?>
<!-- Created with Inkscape (http://www.inkscape.org/) -->

<svg
   xmlns:dc="http://purl.org/dc/elements/1.1/"
   xmlns:cc="http://creativecommons.org/ns#"
   xmlns:rdf="http://www.w3.org/1999/02/22-rdf-syntax-ns#"
   xmlns:svg="http://www.w3.org/2000/svg"
   xmlns="http://www.w3.org/2000/svg"
   xmlns:sodipodi="http://sodipodi.sourceforge.net/DTD/sodipodi-0.dtd"
   xmlns:inkscape="http://www.inkscape.org/namespaces/inkscape"
   width="500"
   height="500"
   viewBox="0 0 500.00001 500.00001"
   id="svg4593"
   version="1.1"
   inkscape:version="0.91 r"
   sodipodi:docname="Flickr_logo.svg">
  <defs
     id="defs4595">
    <clipPath
       clipPathUnits="userSpaceOnUse"
       id="clipPath26982">
      <path
         d="m 0,1.14063 1010,0 0,1009.99997 -1010,0 L 0,1.14063 Z"
         id="path26984"
         inkscape:connector-curvature="0" />
    </clipPath>
  </defs>
  <sodipodi:namedview
     id="base"
     pagecolor="#f4f4f4"
     bordercolor="#666666"
     borderopacity="1.0"
     inkscape:pageopacity="0"
     inkscape:pageshadow="2"
     inkscape:zoom="0.35"
     inkscape:cx="-215"
     inkscape:cy="520"
     inkscape:document-units="px"
     inkscape:current-layer="layer1"
     showgrid="false"
     units="px"
     inkscape:window-width="1920"
     inkscape:window-height="1028"
     inkscape:window-x="0"
     inkscape:window-y="0"
     inkscape:window-maximized="1" />
  <metadata
     id="metadata4598">
    <rdf:RDF>
      <cc:Work
         rdf:about="">
        <dc:format>image/svg+xml</dc:format>
        <dc:type
           rdf:resource="http://purl.org/dc/dcmitype/StillImage" />
        <dc:title></dc:title>
      </cc:Work>
    </rdf:RDF>
  </metadata>
  <g
     inkscape:label="flickr"
     inkscape:groupmode="layer"
     id="layer1"
     transform="translate(0,-552.36216)">
    <g
       id="g26976"
       transform="matrix(0.34960495,0,0,-0.34960554,74.999998,980.86231)"
       style="display:inline;fill:#ffffff;fill-opacity:1">
      <g
         id="g26978"
         style="fill:#ffffff;fill-opacity:1">
        <g
           id="g26980"
           clip-path="url(#clipPath26982)"
           style="fill:#ffffff;fill-opacity:1">
          <path
             d="m 946.051,956.07 c -36.711,36.711 -80.93,55.07 -132.61,55.07 l -625.742,0 C 136.02,1011.14 91.8008,992.781 55.0781,956.07 18.3594,919.352 0,875.129 0,823.449 L 0,197.711 C 0,146.031 18.3594,101.809 55.0781,65.0898 91.8008,28.3711 136.02,10.0117 187.699,10.0117 l 625.742,0 c 51.68,0 95.899,18.3594 132.61,55.0781 36.719,36.7192 55.079,80.9412 55.079,132.6212 l 0,625.738 c 0,51.68 -18.36,95.903 -55.079,132.621 z M 414.531,412.82 C 387.578,385.871 355,372.391 316.762,372.391 c -38.242,0 -70.821,13.48 -97.782,40.429 -26.91,26.918 -40.39,59.532 -40.39,97.739 0,38.281 13.48,70.863 40.39,97.769 26.961,26.953 59.54,40.434 97.782,40.434 38.238,0 70.816,-13.481 97.769,-40.434 26.949,-26.906 40.43,-59.488 40.43,-97.769 0,-38.207 -13.481,-70.821 -40.43,-97.739 z m 367.578,0 c -26.91,-26.949 -59.488,-40.429 -97.73,-40.429 -38.25,0 -70.859,13.48 -97.777,40.429 -26.954,26.918 -40.43,59.532 -40.43,97.739 0,38.281 13.476,70.863 40.43,97.769 26.918,26.953 59.527,40.434 97.777,40.434 38.242,0 70.82,-13.481 97.73,-40.434 26.95,-26.906 40.43,-59.488 40.43,-97.769 0,-38.207 -13.48,-70.821 -40.43,-97.739 z"
             style="fill:#ffffff;fill-opacity:1;fill-rule:nonzero;stroke:none"
             id="path26986"
             inkscape:connector-curvature="0" />
        </g>
      </g>
    </g>
  </g>
</svg>
