<?xml version="1.0" encoding="UTF-8" standalone="no"?>
<!-- Created with Inkscape (http://www.inkscape.org/) -->

<svg
   xmlns:dc="http://purl.org/dc/elements/1.1/"
   xmlns:cc="http://creativecommons.org/ns#"
   xmlns:rdf="http://www.w3.org/1999/02/22-rdf-syntax-ns#"
   xmlns:svg="http://www.w3.org/2000/svg"
   xmlns="http://www.w3.org/2000/svg"
   xmlns:sodipodi="http://sodipodi.sourceforge.net/DTD/sodipodi-0.dtd"
   xmlns:inkscape="http://www.inkscape.org/namespaces/inkscape"
   width="500"
   height="500"
   viewBox="0 0 500.00001 500.00001"
   id="svg4583"
   version="1.1"
   inkscape:version="0.91 r"
   sodipodi:docname="Instagram_logo_2.svg">
  <defs
     id="defs4585" />
  <sodipodi:namedview
     id="base"
     pagecolor="#ededed"
     bordercolor="#666666"
     borderopacity="1.0"
     inkscape:pageopacity="0"
     inkscape:pageshadow="2"
     inkscape:zoom="0.35"
     inkscape:cx="-215"
     inkscape:cy="520"
     inkscape:document-units="px"
     inkscape:current-layer="layer1"
     showgrid="false"
     units="px"
     inkscape:window-width="1920"
     inkscape:window-height="1028"
     inkscape:window-x="0"
     inkscape:window-y="0"
     inkscape:window-maximized="1" />
  <metadata
     id="metadata4588">
    <rdf:RDF>
      <cc:Work
         rdf:about="">
        <dc:format>image/svg+xml</dc:format>
        <dc:type
           rdf:resource="http://purl.org/dc/dcmitype/StillImage" />
        <dc:title></dc:title>
      </cc:Work>
    </rdf:RDF>
  </metadata>
  <g
     inkscape:label="Instagram"
     inkscape:groupmode="layer"
     id="layer1"
     transform="translate(0,-552.36216)">
    <path
       inkscape:connector-curvature="0"
       style="display:inline;opacity:0.97000002;fill:#ffffff;fill-opacity:1;stroke:none;stroke-width:0.025;stroke-miterlimit:4;stroke-dasharray:0.1, 0.025;stroke-dashoffset:0;stroke-opacity:1"
       d="m 355.95217,627.93247 c -11.53999,0 -20.98828,9.44942 -20.98828,20.99609 l 0,46.97852 c -3e-5,11.54664 9.44828,20.99023 20.98828,20.99023 l 46.98438,0 c 11.54338,0 20.99018,-9.44359 20.99018,-20.99023 l 0,-46.97852 c 0,-11.54667 -9.4468,-20.99609 -20.99018,-20.99609 l -46.98438,0 z m -107.44726,88.96484 c -47.75667,0 -86.46877,38.70956 -86.46877,86.4629 1e-5,47.75333 38.71209,86.46874 86.46877,86.46874 47.74999,0 86.45898,-38.71541 86.45898,-86.46874 -6e-5,-47.75334 -38.70899,-86.4629 -86.45898,-86.4629 z m -172.431645,51.98438 0,186.92187 c 0,11.54334 9.44161,20.98829 20.98828,20.98829 l 305.875005,0 c 11.54338,0 20.99018,-9.44495 20.99018,-20.98829 l 0,-186.92187 -41.31831,0 c 2.82569,11.02316 4.33399,22.57424 4.33399,34.47852 0,76.46334 -61.98084,138.44726 -138.4375,138.44726 -76.46335,0 -138.45313,-61.98392 -138.45313,-138.44726 0,-11.90428 1.50813,-23.45536 4.33398,-34.47852 l -38.312495,0 z"
       id="rect16948" />
  </g>
</svg>
