<?xml version="1.0" encoding="UTF-8" standalone="no"?>
<!-- Created with Inkscape (http://www.inkscape.org/) -->

<svg
   xmlns:dc="http://purl.org/dc/elements/1.1/"
   xmlns:cc="http://creativecommons.org/ns#"
   xmlns:rdf="http://www.w3.org/1999/02/22-rdf-syntax-ns#"
   xmlns:svg="http://www.w3.org/2000/svg"
   xmlns="http://www.w3.org/2000/svg"
   xmlns:sodipodi="http://sodipodi.sourceforge.net/DTD/sodipodi-0.dtd"
   xmlns:inkscape="http://www.inkscape.org/namespaces/inkscape"
   width="500"
   height="500"
   viewBox="0 0 500.00001 500.00001"
   id="svg4583"
   version="1.1"
   inkscape:version="0.91 r"
   sodipodi:docname="Instagram_logo.svg">
  <defs
     id="defs4585" />
  <sodipodi:namedview
     id="base"
     pagecolor="#f2f2f2"
     bordercolor="#666666"
     borderopacity="1.0"
     inkscape:pageopacity="0"
     inkscape:pageshadow="2"
     inkscape:zoom="0.35"
     inkscape:cx="-215"
     inkscape:cy="520"
     inkscape:document-units="px"
     inkscape:current-layer="layer1"
     showgrid="false"
     units="px"
     inkscape:window-width="1920"
     inkscape:window-height="1028"
     inkscape:window-x="0"
     inkscape:window-y="0"
     inkscape:window-maximized="1" />
  <metadata
     id="metadata4588">
    <rdf:RDF>
      <cc:Work
         rdf:about="">
        <dc:format>image/svg+xml</dc:format>
        <dc:type
           rdf:resource="http://purl.org/dc/dcmitype/StillImage" />
        <dc:title></dc:title>
      </cc:Work>
    </rdf:RDF>
  </metadata>
  <g
     inkscape:label="Instagram"
     inkscape:groupmode="layer"
     id="layer1"
     transform="translate(0,-552.36216)">
    <path
       style="display:inline;fill:#ffffff;fill-opacity:1;fill-rule:nonzero;stroke:none"
       d="m 116.97976,627.36218 c -23.08708,0 -41.97975,18.89416 -41.97975,41.98378 l 0,266.03238 c 0,23.09222 18.89267,41.9838 41.97975,41.9838 l 266.03641,0 c 23.08967,0 41.98382,-18.89158 41.98382,-41.9838 l 0,-266.03238 c 0,-23.08962 -18.89415,-41.98378 -41.98382,-41.98378 l -266.03641,0 z m 216.2384,38.49593 36.54339,0 c 8.97815,0 16.32523,7.34856 16.32523,16.3293 l 0,36.53935 c 0,8.98072 -7.34708,16.32522 -16.32523,16.32522 l -36.54339,0 c -8.97556,0 -16.32525,-7.3445 -16.32523,-16.32522 l 0,-36.53935 c 0,-8.98074 7.34967,-16.3293 16.32523,-16.3293 z m -83.5706,69.19387 c 37.13888,0 67.24533,30.10794 67.24537,67.24941 0,37.14148 -30.10649,67.25346 -67.24537,67.25346 -37.14407,0 -67.25346,-30.11198 -67.25346,-67.25346 0,-37.14147 30.10939,-67.24941 67.25346,-67.24941 z m -134.11399,40.43228 29.79862,0 c -2.19789,8.57356 -3.37038,17.55826 -3.37038,26.81713 0,59.47148 48.21427,107.6817 107.68575,107.6817 59.46629,0 107.67359,-48.21022 107.67359,-107.6817 0,-9.25887 -1.17262,-18.24357 -3.37037,-26.81713 l 32.136,0 0,145.38368 c 0,8.97814 -7.34708,16.32522 -16.32523,16.32522 l -237.90276,0 c -8.98074,0 -16.32522,-7.34708 -16.32522,-16.32522 l 0,-145.38368 z"
       id="path21755"
       inkscape:connector-curvature="0" />
  </g>
</svg>
