<?xml version="1.0" encoding="UTF-8" standalone="no"?>
<!-- Created with Inkscape (http://www.inkscape.org/) -->

<svg
   xmlns:dc="http://purl.org/dc/elements/1.1/"
   xmlns:cc="http://creativecommons.org/ns#"
   xmlns:rdf="http://www.w3.org/1999/02/22-rdf-syntax-ns#"
   xmlns:svg="http://www.w3.org/2000/svg"
   xmlns="http://www.w3.org/2000/svg"
   xmlns:sodipodi="http://sodipodi.sourceforge.net/DTD/sodipodi-0.dtd"
   xmlns:inkscape="http://www.inkscape.org/namespaces/inkscape"
   width="500"
   height="500"
   viewBox="0 0 500.00001 500.00001"
   id="svg4587"
   version="1.1"
   inkscape:version="0.91 r"
   sodipodi:docname="line_logo.svg">
  <defs
     id="defs4589" />
  <sodipodi:namedview
     id="base"
     pagecolor="#e7e7e7"
     bordercolor="#666666"
     borderopacity="1.0"
     inkscape:pageopacity="0"
     inkscape:pageshadow="2"
     inkscape:zoom="1.694"
     inkscape:cx="250"
     inkscape:cy="250"
     inkscape:document-units="px"
     inkscape:current-layer="layer1"
     showgrid="false"
     units="px"
     inkscape:window-width="1920"
     inkscape:window-height="1028"
     inkscape:window-x="0"
     inkscape:window-y="0"
     inkscape:window-maximized="1" />
  <metadata
     id="metadata4592">
    <rdf:RDF>
      <cc:Work
         rdf:about="">
        <dc:format>image/svg+xml</dc:format>
        <dc:type
           rdf:resource="http://purl.org/dc/dcmitype/StillImage" />
        <dc:title></dc:title>
      </cc:Work>
    </rdf:RDF>
  </metadata>
  <g
     inkscape:label="line"
     inkscape:groupmode="layer"
     id="layer1"
     transform="translate(0,-552.36216)">
    <g
       id="g6225"
       transform="matrix(2.9343918,0,0,-2.9342023,361.75484,769.84135)">
      <path
         d="M 0,0 C 1.794,0 3.254,-1.458 3.254,-3.254 3.254,-5.045 1.794,-6.506 0,-6.506 l -9.074,0 0,-5.82 9.074,0 c 1.794,0 3.254,-1.46 3.254,-3.253 0,-1.795 -1.46,-3.255 -3.254,-3.255 l -12.328,0 c -1.791,0 -3.251,1.46 -3.251,3.255 l 0,24.653 c 0,1.795 1.457,3.255 3.251,3.255 l 12.328,0 c 1.794,0 3.254,-1.46 3.254,-3.255 C 3.254,7.282 1.794,5.823 0,5.823 l -9.074,0 L -9.074,0 0,0 Z m -19.948,-15.579 c 0,-1.403 -0.89,-2.645 -2.223,-3.085 -0.334,-0.113 -0.683,-0.17 -1.034,-0.17 -1.014,0 -1.985,0.488 -2.598,1.301 l -12.632,17.204 0,-15.25 c 0,-1.795 -1.458,-3.255 -3.255,-3.255 -1.793,0 -3.251,1.46 -3.251,3.255 l 0,24.653 c 0,1.403 0.893,2.644 2.22,3.088 0.337,0.112 0.686,0.167 1.034,0.167 1.016,0 1.99,-0.487 2.6,-1.302 l 12.634,-17.204 0,15.251 c 0,1.795 1.46,3.255 3.254,3.255 1.794,0 3.251,-1.46 3.251,-3.255 l 0,-24.653 z m -29.672,0 c 0,-1.795 -1.458,-3.255 -3.252,-3.255 -1.794,0 -3.251,1.46 -3.251,3.255 l 0,24.653 c 0,1.795 1.457,3.255 3.251,3.255 1.794,0 3.252,-1.46 3.252,-3.255 l 0,-24.653 z m -12.749,-3.255 -12.328,0 c -1.794,0 -3.251,1.46 -3.251,3.255 l 0,24.653 c 0,1.795 1.457,3.255 3.251,3.255 1.794,0 3.254,-1.46 3.254,-3.255 l 0,-21.4 9.074,0 c 1.794,0 3.251,-1.46 3.251,-3.253 0,-1.795 -1.457,-3.255 -3.251,-3.255 m 86.325,16.519 c 0,27.758 -27.832,50.345 -62.04,50.345 -34.209,0 -62.041,-22.587 -62.041,-50.345 0,-24.888 22.07,-45.732 51.887,-49.675 2.018,-0.435 4.768,-1.333 5.463,-3.058 0.627,-1.57 0.412,-4.023 0.201,-5.61 0,0 -0.726,-4.378 -0.884,-5.311 -0.271,-1.569 -1.25,-6.133 5.374,-3.344 6.62,2.787 35.726,21.038 48.742,36.022 l -0.003,-0.001 c 8.993,9.859 13.301,19.865 13.301,30.977"
         style="fill:#ffffff;fill-opacity:1;fill-rule:nonzero;stroke:none"
         id="path6227"
         inkscape:connector-curvature="0" />
    </g>
  </g>
</svg>
