<?xml version="1.0" encoding="UTF-8" standalone="no"?>
<!-- Created with Inkscape (http://www.inkscape.org/) -->

<svg
   xmlns:dc="http://purl.org/dc/elements/1.1/"
   xmlns:cc="http://creativecommons.org/ns#"
   xmlns:rdf="http://www.w3.org/1999/02/22-rdf-syntax-ns#"
   xmlns:svg="http://www.w3.org/2000/svg"
   xmlns="http://www.w3.org/2000/svg"
   xmlns:sodipodi="http://sodipodi.sourceforge.net/DTD/sodipodi-0.dtd"
   xmlns:inkscape="http://www.inkscape.org/namespaces/inkscape"
   width="500"
   height="500"
   viewBox="0 0 500.00001 500.00001"
   id="svg4583"
   version="1.1"
   inkscape:version="0.91 r"
   sodipodi:docname="pinterest_logo.svg">
  <defs
     id="defs4585" />
  <sodipodi:namedview
     id="base"
     pagecolor="#e3e3e3"
     bordercolor="#666666"
     borderopacity="1.0"
     inkscape:pageopacity="0"
     inkscape:pageshadow="2"
     inkscape:zoom="1.694"
     inkscape:cx="250"
     inkscape:cy="250"
     inkscape:document-units="px"
     inkscape:current-layer="layer1"
     showgrid="false"
     units="px"
     inkscape:window-width="1920"
     inkscape:window-height="1028"
     inkscape:window-x="0"
     inkscape:window-y="0"
     inkscape:window-maximized="1" />
  <metadata
     id="metadata4588">
    <rdf:RDF>
      <cc:Work
         rdf:about="">
        <dc:format>image/svg+xml</dc:format>
        <dc:type
           rdf:resource="http://purl.org/dc/dcmitype/StillImage" />
        <dc:title></dc:title>
      </cc:Work>
    </rdf:RDF>
  </metadata>
  <g
     inkscape:label="Pinterest"
     inkscape:groupmode="layer"
     id="layer1"
     transform="translate(0,-552.36216)">
    <path
       inkscape:connector-curvature="0"
       id="path21129"
       style="fill:#ffffff;fill-opacity:1;fill-rule:nonzero;stroke:none"
       d="m 249.78709,640.55523 c -89.36215,0 -161.80647,72.4427 -161.80647,161.80693 0,68.54919 42.64835,127.09908 102.83942,150.67547 -1.41482,-12.80222 -2.69182,-32.43844 0.56291,-46.41413 2.93949,-12.62941 18.97327,-80.43048 18.97327,-80.43048 0,0 -4.84018,-9.69281 -4.84018,-24.0236 0,-22.49868 13.04057,-39.29625 29.27754,-39.29625 13.80473,0 20.47364,10.3651 20.47364,22.79326 0,13.8826 -8.83914,34.63809 -13.40126,53.87472 -3.81206,16.10534 8.07692,29.23885 23.96073,29.23885 28.75911,0 50.86485,-30.3241 50.86485,-74.09597 0,-38.74159 -27.83841,-65.82916 -67.58719,-65.82916 -46.03877,0 -73.06223,34.53212 -73.06223,70.21948 0,13.90715 5.35666,28.82006 12.04162,36.92621 1.32051,1.60173 1.51519,3.00611 1.12218,4.6409 -1.22864,5.11097 -3.95814,16.10146 -4.49456,18.34972 -0.70655,2.96236 -2.34522,3.5909 -5.41086,2.1649 -20.20944,-9.4082 -32.84459,-38.95257 -32.84459,-62.68573 0,-51.04166 37.08564,-97.91686 106.91233,-97.91686 56.13037,0 99.751,39.99746 99.751,93.45266 0,55.7652 -35.16139,100.64395 -83.96392,100.64395 -16.39569,0 -31.80967,-8.51642 -37.08564,-18.57844 0,0 -8.1129,30.89455 -10.07993,38.46354 -3.65432,14.05542 -13.51525,31.67208 -20.11076,42.41978 15.13958,4.6864 31.22853,7.21666 47.9081,7.21666 89.36384,0 161.80847,-72.44574 161.80847,-161.80948 0,-89.36423 -72.44463,-161.80693 -161.80847,-161.80693 m 175.21289,161.80693 c 0,96.65054 -78.35083,174.99998 -175.00022,174.99998 -96.64915,0 -174.99974,-78.34944 -174.99974,-174.99998 0,-96.6486 78.35059,-174.99998 174.99974,-174.99998 96.64939,0 175.00022,78.35138 175.00022,174.99998" />
  </g>
</svg>
