<?xml version="1.0" encoding="UTF-8" standalone="no"?>
<!-- Created with Inkscape (http://www.inkscape.org/) -->

<svg
   xmlns:dc="http://purl.org/dc/elements/1.1/"
   xmlns:cc="http://creativecommons.org/ns#"
   xmlns:rdf="http://www.w3.org/1999/02/22-rdf-syntax-ns#"
   xmlns:svg="http://www.w3.org/2000/svg"
   xmlns="http://www.w3.org/2000/svg"
   xmlns:sodipodi="http://sodipodi.sourceforge.net/DTD/sodipodi-0.dtd"
   xmlns:inkscape="http://www.inkscape.org/namespaces/inkscape"
   width="500"
   height="500"
   viewBox="0 0 500.00001 500.00001"
   id="svg4588"
   version="1.1"
   inkscape:version="0.91 r"
   sodipodi:docname="pinterest_logo_2.svg">
  <defs
     id="defs4590" />
  <sodipodi:namedview
     id="base"
     pagecolor="#e7e7e7"
     bordercolor="#666666"
     borderopacity="1.0"
     inkscape:pageopacity="0"
     inkscape:pageshadow="2"
     inkscape:zoom="1.694"
     inkscape:cx="250"
     inkscape:cy="250"
     inkscape:document-units="px"
     inkscape:current-layer="layer1"
     showgrid="false"
     units="px"
     inkscape:window-width="1920"
     inkscape:window-height="1028"
     inkscape:window-x="0"
     inkscape:window-y="0"
     inkscape:window-maximized="1" />
  <metadata
     id="metadata4593">
    <rdf:RDF>
      <cc:Work
         rdf:about="">
        <dc:format>image/svg+xml</dc:format>
        <dc:type
           rdf:resource="http://purl.org/dc/dcmitype/StillImage" />
        <dc:title></dc:title>
      </cc:Work>
    </rdf:RDF>
  </metadata>
  <g
     inkscape:label="Pinterest"
     inkscape:groupmode="layer"
     id="layer1"
     transform="translate(0,-552.36216)">
    <g
       id="g12"
       transform="matrix(0.43749714,0,0,-0.43749714,113.8605,977.36216)"
       style="fill:#ffffff;fill-opacity:1">
      <path
         d="M 255.82,270.898 C 234.801,160.75 209.18,55.1602 133.16,0 c -23.43,166.488 34.461,291.488 61.371,424.219 -45.859,77.152 5.508,232.5 102.188,194.222 118.98,-47.07 -103.047,-286.91 46.011,-316.91 C 498.359,270.281 561.879,571.57 465.391,669.539 325.98,811.02 59.5313,672.781 92.3008,470.199 100.27,420.711 151.41,405.672 112.73,337.309 23.4805,357.109 -3.12109,427.5 0.269531,521.328 5.82031,674.891 138.281,782.43 271.172,797.309 c 168.047,18.832 325.777,-61.68 347.539,-219.77 24.527,-178.43 -75.82,-371.68 -255.551,-357.769 -48.711,3.789 -69.14,27.929 -107.34,51.128 z"
         style="fill:#ffffff;fill-opacity:1;fill-rule:nonzero;stroke:none"
         id="path14"
         inkscape:connector-curvature="0" />
    </g>
  </g>
</svg>
