<?xml version="1.0" encoding="UTF-8" standalone="no"?>
<!-- Created with Inkscape (http://www.inkscape.org/) -->

<svg
   xmlns:dc="http://purl.org/dc/elements/1.1/"
   xmlns:cc="http://creativecommons.org/ns#"
   xmlns:rdf="http://www.w3.org/1999/02/22-rdf-syntax-ns#"
   xmlns:svg="http://www.w3.org/2000/svg"
   xmlns="http://www.w3.org/2000/svg"
   xmlns:sodipodi="http://sodipodi.sourceforge.net/DTD/sodipodi-0.dtd"
   xmlns:inkscape="http://www.inkscape.org/namespaces/inkscape"
   width="500"
   height="500"
   viewBox="0 0 499.99998 499.99998"
   id="svg2"
   version="1.1"
   inkscape:version="0.91 r"
   sodipodi:docname="pocket_logo.svg">
  <defs
     id="defs4" />
  <sodipodi:namedview
     id="base"
     pagecolor="#f2f2f2"
     bordercolor="#666666"
     borderopacity="1.0"
     inkscape:pageopacity="0"
     inkscape:pageshadow="2"
     inkscape:zoom="1"
     inkscape:cx="239.71429"
     inkscape:cy="273.78571"
     inkscape:document-units="px"
     inkscape:current-layer="layer1"
     showgrid="false"
     units="px"
     inkscape:window-width="1316"
     inkscape:window-height="1028"
     inkscape:window-x="602"
     inkscape:window-y="0"
     inkscape:window-maximized="0" />
  <metadata
     id="metadata7">
    <rdf:RDF>
      <cc:Work
         rdf:about="">
        <dc:format>image/svg+xml</dc:format>
        <dc:type
           rdf:resource="http://purl.org/dc/dcmitype/StillImage" />
        <dc:title></dc:title>
      </cc:Work>
    </rdf:RDF>
  </metadata>
  <g
     inkscape:label="pocket"
     inkscape:groupmode="layer"
     id="layer1"
     transform="translate(0,-552.36209)">
    <path
       inkscape:connector-curvature="0"
       style="fill:#ffffff;fill-opacity:1"
       d="m 121.34488,660.98639 c -16.99249,1.1074 -27.280392,10.808 -27.280392,28.0616 l 0,103.32769 c 0,83.92508 83.469392,149.87974 155.675082,149.35894 81.19019,-0.5859 156.19589,-69.14526 156.19589,-149.35894 l 0,-103.32769 c 0,-17.3187 -10.9382,-27.0851 -28.0616,-28.0616 l -256.52898,0 z m 65.7601,84.05529 62.63459,59.5091 62.69969,-59.5091 c 28.0616,-11.7845 40.3018,20.2489 28.7777,29.6247 l -81.64589,77.93449 c -2.6691,2.5396 -16.9281,2.5396 -19.59719,0 l -81.6466,-77.93519 c -11.004,-10.3523 3.3201,-42.9065 28.7777,-29.624 l 0,0 z"
       id="path4184" />
  </g>
</svg>
