<?xml version="1.0" encoding="UTF-8" standalone="no"?>
<!-- Created with Inkscape (http://www.inkscape.org/) -->

<svg
   xmlns:dc="http://purl.org/dc/elements/1.1/"
   xmlns:cc="http://creativecommons.org/ns#"
   xmlns:rdf="http://www.w3.org/1999/02/22-rdf-syntax-ns#"
   xmlns:svg="http://www.w3.org/2000/svg"
   xmlns="http://www.w3.org/2000/svg"
   xmlns:sodipodi="http://sodipodi.sourceforge.net/DTD/sodipodi-0.dtd"
   xmlns:inkscape="http://www.inkscape.org/namespaces/inkscape"
   width="500"
   height="500"
   viewBox="0 0 500.00001 500.00001"
   id="svg4597"
   version="1.1"
   inkscape:version="0.91 r"
   sodipodi:docname="rss_logo.svg">
  <defs
     id="defs4599" />
  <sodipodi:namedview
     id="base"
     pagecolor="#f0f0f0"
     bordercolor="#666666"
     borderopacity="1.0"
     inkscape:pageopacity="0"
     inkscape:pageshadow="2"
     inkscape:zoom="0.35"
     inkscape:cx="-215"
     inkscape:cy="520"
     inkscape:document-units="px"
     inkscape:current-layer="layer1"
     showgrid="false"
     units="px"
     inkscape:window-width="1920"
     inkscape:window-height="1028"
     inkscape:window-x="0"
     inkscape:window-y="0"
     inkscape:window-maximized="1" />
  <metadata
     id="metadata4602">
    <rdf:RDF>
      <cc:Work
         rdf:about="">
        <dc:format>image/svg+xml</dc:format>
        <dc:type
           rdf:resource="http://purl.org/dc/dcmitype/StillImage" />
        <dc:title></dc:title>
      </cc:Work>
    </rdf:RDF>
  </metadata>
  <g
     inkscape:label="rss"
     inkscape:groupmode="layer"
     id="layer1"
     transform="translate(0,-552.36216)">
    <g
       transform="translate(-6.0511425,559.75828)"
       id="g24358">
      <path
         d="m 177.85662,365.72261 c 0,24.6582 -19.99218,44.64414 -44.64453,44.64414 -24.64726,0 -44.641005,-19.98594 -44.641005,-44.64414 0,-24.6582 19.993745,-44.64257 44.641005,-44.64257 24.65235,0 44.64453,19.98437 44.64453,44.64257"
         style="fill:#ffffff;fill-opacity:1;fill-rule:nonzero;stroke:none"
         id="path19808"
         inkscape:connector-curvature="0" />
      <path
         d="m 88.623038,253.1738 c 41.836712,0 81.149212,16.35273 110.702332,46.04804 29.59609,29.73476 45.89569,69.31601 45.89569,111.4578 l 64.45312,0 c 0,-122.38788 -99.16405,-221.95896 -221.051142,-221.95896 l 0,64.45312"
         style="fill:#ffffff;fill-opacity:1;fill-rule:nonzero;stroke:none"
         id="path19810"
         inkscape:connector-curvature="0" />
      <path
         d="m 88.717569,138.916 c 149.076931,0 270.359731,121.9453 270.359731,271.83083 l 64.4539,0 c 0,-185.4281 -150.19764,-336.285898 -334.813631,-336.285898 l 0,64.455068"
         style="fill:#ffffff;fill-opacity:1;fill-rule:nonzero;stroke:none"
         id="path19812"
         inkscape:connector-curvature="0" />
    </g>
  </g>
</svg>
