<?xml version="1.0" encoding="UTF-8" standalone="no"?>
<!-- Created with Inkscape (http://www.inkscape.org/) -->

<svg
   xmlns:dc="http://purl.org/dc/elements/1.1/"
   xmlns:cc="http://creativecommons.org/ns#"
   xmlns:rdf="http://www.w3.org/1999/02/22-rdf-syntax-ns#"
   xmlns:svg="http://www.w3.org/2000/svg"
   xmlns="http://www.w3.org/2000/svg"
   xmlns:sodipodi="http://sodipodi.sourceforge.net/DTD/sodipodi-0.dtd"
   xmlns:inkscape="http://www.inkscape.org/namespaces/inkscape"
   width="500"
   height="500"
   viewBox="0 0 500.00001 500.00001"
   id="svg4595"
   version="1.1"
   inkscape:version="0.91 r"
   sodipodi:docname="youtube_logo.svg">
  <defs
     id="defs4597" />
  <sodipodi:namedview
     id="base"
     pagecolor="#e9e9e9"
     bordercolor="#666666"
     borderopacity="1.0"
     inkscape:pageopacity="0"
     inkscape:pageshadow="2"
     inkscape:zoom="1.694"
     inkscape:cx="250"
     inkscape:cy="250"
     inkscape:document-units="px"
     inkscape:current-layer="layer1"
     showgrid="false"
     units="px"
     inkscape:window-width="1920"
     inkscape:window-height="1028"
     inkscape:window-x="0"
     inkscape:window-y="0"
     inkscape:window-maximized="1" />
  <metadata
     id="metadata4600">
    <rdf:RDF>
      <cc:Work
         rdf:about="">
        <dc:format>image/svg+xml</dc:format>
        <dc:type
           rdf:resource="http://purl.org/dc/dcmitype/StillImage" />
        <dc:title></dc:title>
      </cc:Work>
    </rdf:RDF>
  </metadata>
  <g
     inkscape:label="レイヤー 1"
     inkscape:groupmode="layer"
     id="layer1"
     transform="translate(0,-552.36216)">
    <g
       transform="translate(3e-5,552.36219)"
       id="g28249">
      <path
         inkscape:connector-curvature="0"
         id="path27628"
         d="m 249.93591,216.48627 c 0,0 -62.68219,8e-4 -104.46719,3.00782 -5.838,0.692 -18.56175,0.75162 -29.91875,12.59062 -8.95399,9.021 -11.86875,29.50625 -11.86875,29.50625 0,0 -2.98594,24.0555 -2.98594,48.1125 l 0,22.55157 c 0,24.05429 2.98594,48.10937 2.98594,48.10937 0,0 2.91476,20.48445 11.86875,29.50625 11.357,11.84183 26.281,11.46445 32.925,12.70469 23.889,2.28281 101.525,2.98906 101.525,2.98906 0,0 62.74625,-0.0953 104.53125,-3.1 5.836,-0.69413 18.56631,-0.75192 29.92031,-12.59375 8.953,-9.0218 11.87031,-29.50625 11.87031,-29.50625 0,0 2.98282,-24.05508 2.98282,-48.10937 l 0,-22.55157 c 0,-24.057 -2.98282,-48.1125 -2.98282,-48.1125 0,0 -2.91731,-20.48525 -11.87031,-29.50625 -11.354,-11.839 -24.08431,-11.89862 -29.92031,-12.59062 -41.785,-3.007 -104.46407,-3.00782 -104.46407,-3.00782 l -0.13124,0 z m -61.65469,35.19688 0,19 -22,0 0,115 -20,0 0,-115 -21,0 0,-18.97969 63,-0.0203 z m 65,0 18,0 -0.0203,43.6875 c 5.848,-7.196 12.46813,-11.29219 19.12813,-11.29219 7.209,0 12.05431,4.165 14.47031,11.65 1.209,4.019 2.42187,10.48969 2.42187,19.95469 l 0,40 c 0,9.24181 -0.791,15.7637 -2,20 -2.416,7.42969 -7.68318,11.28906 -14.89218,11.28906 -6.437,0 -13.03382,-3.87381 -19.08282,-11.35781 l -0.025,10.06875 -18,0 0,-134 z m 93.77657,32.55156 c 9.082,0 16.29218,3.61981 21.36718,10.45781 3.785,5.054 5.8875,12.86687 5.8875,23.54688 l 0.005,20.44375 -36.03594,0 0,17.95781 c -0.062,9.2281 2.56256,13.87344 8.77657,13.87344 4.457,0 7.05605,-2.4234 8.08905,-7.2625 0.168,-0.9867 0.13595,-5.30505 0.13595,-12.56875 l 18.99843,0 0,2.83437 c 0,5.834 -0.47918,9.96211 -0.64218,11.775 -0.611,4.01291 -2.03338,7.64369 -4.23438,10.84688 -5.008,7.2558 -12.43787,10.83281 -21.89687,10.83281 -9.47101,0 -16.67851,-3.40784 -21.91251,-10.23594 -3.846,-5 -6.31406,-12.43432 -6.31406,-23.05312 l 0,-35 c 0,-10.68 2.24462,-18.93663 6.09062,-23.99063 5.236,-6.838 12.44394,-10.45781 21.68595,-10.45781 z m -161.77657,1.44844 19,0 0,74 0,7 c 0.443,2.8071 1.63557,3.83125 4.05157,3.83125 3.637,0 6.92743,-3.15935 10.94843,-8.83125 l 0,-76 19,0 0,100 -19,0 0,-11 c -7.203,8.25589 -13.30804,12.425 -19.96407,12.425 -5.84,0 -9.89556,-2.75436 -11.92656,-7.73125 -1.234,-3.027 -2.10937,-7.75195 -2.10937,-14.69375 l 0,-79 z m 95.42188,15.06406 c -2.981,0 -6.39488,1.57294 -9.42188,4.56094 l -0.0203,60.64531 c 3.028,3.0274 6.46119,4.56094 9.44219,4.56094 5.221,0 7.57812,-3.83124 7.57812,-13.83125 l 0,-43 c 0,-10 -2.35712,-12.93594 -7.57812,-12.93594 z m 66.18749,0 c -6.046,0 -8.60937,2.54775 -8.60937,11.89375 l 0,0.002 0,11.05938 17,-0.0187 0,-10.91719 c 0,-9.243 -2.38863,-12.01875 -8.39063,-12.01875 z"
         style="fill:#ffffff;fill-opacity:1;fill-rule:nonzero;stroke:none" />
      <g
         style="fill:#ffffff;fill-opacity:1"
         transform="matrix(0.8,0,0,0.8,-178.36203,61.811275)"
         id="g28231">
        <path
           inkscape:connector-curvature="0"
           id="path27630"
           style="fill:#ffffff;fill-opacity:1;fill-rule:nonzero;stroke:none"
           d="m 652.32749,184.53044 -23.75,0 0,-13.75 c -9.00375,10.31987 -16.63625,15.53225 -24.95625,15.53225 -7.3,0 -12.36875,-3.44388 -14.9075,-9.665 -1.5425,-3.78375 -2.63625,-9.69 -2.63625,-18.36725 l 0,-100.000123 23.75,0 0,93.750123 c 0,5.30225 0,7.5 0,8.75 0.55375,3.50888 2.04375,4.79013 5.06375,4.79013 4.54625,0 8.66,-3.95025 13.68625,-11.04013 l 0,-96.250123 23.75,0 0,126.250123" />
        <path
           inkscape:connector-curvature="0"
           id="path27632"
           style="fill:#ffffff;fill-opacity:1;fill-rule:nonzero;stroke:none"
           d="m 544.8275,147.03044 c 1.25,12.5 -2.627,18.70225 -10.002,18.70225 -7.375,0 -11.248,-6.20225 -9.998,-18.70225 l 0,-50.000123 c -1.25,-12.5 2.625,-18.35875 10,-18.35875 7.375,0 11.2625,5.85875 10.0125,18.35875 l -0.0125,50.000123 z m 23.74999,-47.500123 c 0,-13.49125 -2.71,-23.6225 -7.5,-30 -6.32749,-8.635 -16.24999,-12.17 -26.24999,-12.17 -11.31888,0 -19.93213,3.535 -26.25,12.17 -4.86625,6.3775 -7.4765,16.61875 -7.4765,30.11 l -0.0235,44.890123 c 0,13.41613 2.32175,22.68613 7.188,29.001 6.31787,8.60887 16.562,13.17 26.562,13.17 10,0 20.42375,-4.56113 26.74999,-13.17 4.79,-6.31487 7,-15.58487 7,-29.001 l 0,-45.000123" />
        <path
           inkscape:connector-curvature="0"
           id="path27634"
           style="fill:#ffffff;fill-opacity:1;fill-rule:nonzero;stroke:none"
           d="m 474.8275,115.78044 0,68.75 -25,0 0,-68.75 c 0,0 -25.90576,-84.288863 -31.24999,-100.000113 l 26.24999,0 17.5435,65.84499 17.4565,-65.84499 26.25,0 -31.25,100.000113" />
      </g>
    </g>
  </g>
</svg>
